<svg
              xmlns="http://www.w3.org/2000/svg"
              width="20"
              height="20"
              viewBox="0 0 20 20"
              fill="none"
            >
              <path
                d="M16.4618 9.16677C16.6128 9.16678 16.7587 9.22147 16.8725 9.32074C16.9864 9.42001 17.0604 9.55714 17.0809 9.70677L17.0868 9.79177V15.6251C17.087 16.317 16.8224 16.9828 16.3473 17.4858C15.8722 17.9888 15.2226 18.2909 14.5318 18.3301L14.3784 18.3343H5.21175C4.51997 18.3343 3.85439 18.0696 3.35156 17.5945C2.84872 17.1194 2.54675 16.4699 2.50758 15.7793L2.50342 15.6259V9.79177C2.50347 9.63342 2.56362 9.48099 2.67173 9.36528C2.77984 9.24957 2.92783 9.17921 3.08582 9.16841C3.2438 9.15762 3.39999 9.2072 3.52283 9.30713C3.64567 9.40706 3.726 9.54989 3.74758 9.70677L3.75342 9.79177V15.6251C3.75322 15.9912 3.89076 16.3441 4.1387 16.6135C4.38665 16.8829 4.72686 17.0491 5.09175 17.0793L5.21175 17.0843H14.3784C14.7445 17.0842 15.0973 16.9465 15.3665 16.6984C15.6358 16.4503 15.8018 16.11 15.8318 15.7451L15.8368 15.6259V9.79177C15.8368 9.62601 15.9026 9.46704 16.0198 9.34983C16.137 9.23262 16.296 9.16677 16.4618 9.16677ZM5.18258 6.01344L9.34675 1.8501C9.45257 1.74425 9.59287 1.6799 9.74213 1.66873C9.89139 1.65757 10.0397 1.70034 10.1601 1.78927L10.2301 1.84927L14.4009 6.01344C14.513 6.12482 14.5788 6.27453 14.585 6.43245C14.5911 6.59037 14.5372 6.74475 14.4341 6.86454C14.331 6.98432 14.1864 7.0606 14.0293 7.07802C13.8723 7.09544 13.7144 7.05271 13.5876 6.95844L13.5176 6.8976L10.4151 3.80094V13.5459C10.4151 13.6968 10.3605 13.8427 10.2614 13.9565C10.1623 14.0703 10.0254 14.1444 9.87592 14.1651L9.79092 14.1709C9.63989 14.1709 9.49397 14.1162 9.38014 14.017C9.26632 13.9177 9.19229 13.7806 9.17175 13.6309L9.16592 13.5459L9.16508 3.79844L6.06675 6.8976C5.96088 7.00367 5.82042 7.06816 5.67097 7.07933C5.52153 7.0905 5.37304 7.04759 5.25258 6.95844L5.18258 6.8976C5.07664 6.79163 5.0123 6.65111 5.00129 6.50167C4.99028 6.35222 5.03332 6.2038 5.12258 6.08344L5.18258 6.01344Z"
                fill="black"
              />
              <path
                d="M16.4618 9.16677C16.6128 9.16678 16.7587 9.22147 16.8725 9.32074C16.9864 9.42001 17.0604 9.55714 17.0809 9.70677L17.0868 9.79177V15.6251C17.087 16.317 16.8224 16.9828 16.3473 17.4858C15.8722 17.9888 15.2226 18.2909 14.5318 18.3301L14.3784 18.3343H5.21175C4.51997 18.3343 3.85439 18.0696 3.35156 17.5945C2.84872 17.1194 2.54675 16.4699 2.50758 15.7793L2.50342 15.6259V9.79177C2.50347 9.63342 2.56362 9.48099 2.67173 9.36528C2.77984 9.24957 2.92783 9.17921 3.08582 9.16841C3.2438 9.15762 3.39999 9.2072 3.52283 9.30713C3.64567 9.40706 3.726 9.54989 3.74758 9.70677L3.75342 9.79177V15.6251C3.75322 15.9912 3.89076 16.3441 4.1387 16.6135C4.38665 16.8829 4.72686 17.0491 5.09175 17.0793L5.21175 17.0843H14.3784C14.7445 17.0842 15.0973 16.9465 15.3665 16.6984C15.6358 16.4503 15.8018 16.11 15.8318 15.7451L15.8368 15.6259V9.79177C15.8368 9.62601 15.9026 9.46704 16.0198 9.34983C16.137 9.23262 16.296 9.16677 16.4618 9.16677ZM5.18258 6.01344L9.34675 1.8501C9.45257 1.74425 9.59287 1.6799 9.74213 1.66873C9.89139 1.65757 10.0397 1.70034 10.1601 1.78927L10.2301 1.84927L14.4009 6.01344C14.513 6.12482 14.5788 6.27453 14.585 6.43245C14.5911 6.59037 14.5372 6.74475 14.4341 6.86454C14.331 6.98432 14.1864 7.0606 14.0293 7.07802C13.8723 7.09544 13.7144 7.05271 13.5876 6.95844L13.5176 6.8976L10.4151 3.80094V13.5459C10.4151 13.6968 10.3605 13.8427 10.2614 13.9565C10.1623 14.0703 10.0254 14.1444 9.87592 14.1651L9.79092 14.1709C9.63989 14.1709 9.49397 14.1162 9.38014 14.017C9.26632 13.9177 9.19229 13.7806 9.17175 13.6309L9.16592 13.5459L9.16508 3.79844L6.06675 6.8976C5.96088 7.00367 5.82042 7.06816 5.67097 7.07933C5.52153 7.0905 5.37304 7.04759 5.25258 6.95844L5.18258 6.8976C5.07664 6.79163 5.0123 6.65111 5.00129 6.50167C4.99028 6.35222 5.03332 6.2038 5.12258 6.08344L5.18258 6.01344Z"
                fill="black"
                fill-opacity="0.2"
              />
              <path
                d="M16.4618 9.16677C16.6128 9.16678 16.7587 9.22147 16.8725 9.32074C16.9864 9.42001 17.0604 9.55714 17.0809 9.70677L17.0868 9.79177V15.6251C17.087 16.317 16.8224 16.9828 16.3473 17.4858C15.8722 17.9888 15.2226 18.2909 14.5318 18.3301L14.3784 18.3343H5.21175C4.51997 18.3343 3.85439 18.0696 3.35156 17.5945C2.84872 17.1194 2.54675 16.4699 2.50758 15.7793L2.50342 15.6259V9.79177C2.50347 9.63342 2.56362 9.48099 2.67173 9.36528C2.77984 9.24957 2.92783 9.17921 3.08582 9.16841C3.2438 9.15762 3.39999 9.2072 3.52283 9.30713C3.64567 9.40706 3.726 9.54989 3.74758 9.70677L3.75342 9.79177V15.6251C3.75322 15.9912 3.89076 16.3441 4.1387 16.6135C4.38665 16.8829 4.72686 17.0491 5.09175 17.0793L5.21175 17.0843H14.3784C14.7445 17.0842 15.0973 16.9465 15.3665 16.6984C15.6358 16.4503 15.8018 16.11 15.8318 15.7451L15.8368 15.6259V9.79177C15.8368 9.62601 15.9026 9.46704 16.0198 9.34983C16.137 9.23262 16.296 9.16677 16.4618 9.16677ZM5.18258 6.01344L9.34675 1.8501C9.45257 1.74425 9.59287 1.6799 9.74213 1.66873C9.89139 1.65757 10.0397 1.70034 10.1601 1.78927L10.2301 1.84927L14.4009 6.01344C14.513 6.12482 14.5788 6.27453 14.585 6.43245C14.5911 6.59037 14.5372 6.74475 14.4341 6.86454C14.331 6.98432 14.1864 7.0606 14.0293 7.07802C13.8723 7.09544 13.7144 7.05271 13.5876 6.95844L13.5176 6.8976L10.4151 3.80094V13.5459C10.4151 13.6968 10.3605 13.8427 10.2614 13.9565C10.1623 14.0703 10.0254 14.1444 9.87592 14.1651L9.79092 14.1709C9.63989 14.1709 9.49397 14.1162 9.38014 14.017C9.26632 13.9177 9.19229 13.7806 9.17175 13.6309L9.16592 13.5459L9.16508 3.79844L6.06675 6.8976C5.96088 7.00367 5.82042 7.06816 5.67097 7.07933C5.52153 7.0905 5.37304 7.04759 5.25258 6.95844L5.18258 6.8976C5.07664 6.79163 5.0123 6.65111 5.00129 6.50167C4.99028 6.35222 5.03332 6.2038 5.12258 6.08344L5.18258 6.01344Z"
                fill="black"
                fill-opacity="0.2"
              />
              <path
                d="M16.4618 9.16677C16.6128 9.16678 16.7587 9.22147 16.8725 9.32074C16.9864 9.42001 17.0604 9.55714 17.0809 9.70677L17.0868 9.79177V15.6251C17.087 16.317 16.8224 16.9828 16.3473 17.4858C15.8722 17.9888 15.2226 18.2909 14.5318 18.3301L14.3784 18.3343H5.21175C4.51997 18.3343 3.85439 18.0696 3.35156 17.5945C2.84872 17.1194 2.54675 16.4699 2.50758 15.7793L2.50342 15.6259V9.79177C2.50347 9.63342 2.56362 9.48099 2.67173 9.36528C2.77984 9.24957 2.92783 9.17921 3.08582 9.16841C3.2438 9.15762 3.39999 9.2072 3.52283 9.30713C3.64567 9.40706 3.726 9.54989 3.74758 9.70677L3.75342 9.79177V15.6251C3.75322 15.9912 3.89076 16.3441 4.1387 16.6135C4.38665 16.8829 4.72686 17.0491 5.09175 17.0793L5.21175 17.0843H14.3784C14.7445 17.0842 15.0973 16.9465 15.3665 16.6984C15.6358 16.4503 15.8018 16.11 15.8318 15.7451L15.8368 15.6259V9.79177C15.8368 9.62601 15.9026 9.46704 16.0198 9.34983C16.137 9.23262 16.296 9.16677 16.4618 9.16677ZM5.18258 6.01344L9.34675 1.8501C9.45257 1.74425 9.59287 1.6799 9.74213 1.66873C9.89139 1.65757 10.0397 1.70034 10.1601 1.78927L10.2301 1.84927L14.4009 6.01344C14.513 6.12482 14.5788 6.27453 14.585 6.43245C14.5911 6.59037 14.5372 6.74475 14.4341 6.86454C14.331 6.98432 14.1864 7.0606 14.0293 7.07802C13.8723 7.09544 13.7144 7.05271 13.5876 6.95844L13.5176 6.8976L10.4151 3.80094V13.5459C10.4151 13.6968 10.3605 13.8427 10.2614 13.9565C10.1623 14.0703 10.0254 14.1444 9.87592 14.1651L9.79092 14.1709C9.63989 14.1709 9.49397 14.1162 9.38014 14.017C9.26632 13.9177 9.19229 13.7806 9.17175 13.6309L9.16592 13.5459L9.16508 3.79844L6.06675 6.8976C5.96088 7.00367 5.82042 7.06816 5.67097 7.07933C5.52153 7.0905 5.37304 7.04759 5.25258 6.95844L5.18258 6.8976C5.07664 6.79163 5.0123 6.65111 5.00129 6.50167C4.99028 6.35222 5.03332 6.2038 5.12258 6.08344L5.18258 6.01344Z"
                fill="black"
                fill-opacity="0.2"
              />
              <path
                d="M16.4618 9.16677C16.6128 9.16678 16.7587 9.22147 16.8725 9.32074C16.9864 9.42001 17.0604 9.55714 17.0809 9.70677L17.0868 9.79177V15.6251C17.087 16.317 16.8224 16.9828 16.3473 17.4858C15.8722 17.9888 15.2226 18.2909 14.5318 18.3301L14.3784 18.3343H5.21175C4.51997 18.3343 3.85439 18.0696 3.35156 17.5945C2.84872 17.1194 2.54675 16.4699 2.50758 15.7793L2.50342 15.6259V9.79177C2.50347 9.63342 2.56362 9.48099 2.67173 9.36528C2.77984 9.24957 2.92783 9.17921 3.08582 9.16841C3.2438 9.15762 3.39999 9.2072 3.52283 9.30713C3.64567 9.40706 3.726 9.54989 3.74758 9.70677L3.75342 9.79177V15.6251C3.75322 15.9912 3.89076 16.3441 4.1387 16.6135C4.38665 16.8829 4.72686 17.0491 5.09175 17.0793L5.21175 17.0843H14.3784C14.7445 17.0842 15.0973 16.9465 15.3665 16.6984C15.6358 16.4503 15.8018 16.11 15.8318 15.7451L15.8368 15.6259V9.79177C15.8368 9.62601 15.9026 9.46704 16.0198 9.34983C16.137 9.23262 16.296 9.16677 16.4618 9.16677ZM5.18258 6.01344L9.34675 1.8501C9.45257 1.74425 9.59287 1.6799 9.74213 1.66873C9.89139 1.65757 10.0397 1.70034 10.1601 1.78927L10.2301 1.84927L14.4009 6.01344C14.513 6.12482 14.5788 6.27453 14.585 6.43245C14.5911 6.59037 14.5372 6.74475 14.4341 6.86454C14.331 6.98432 14.1864 7.0606 14.0293 7.07802C13.8723 7.09544 13.7144 7.05271 13.5876 6.95844L13.5176 6.8976L10.4151 3.80094V13.5459C10.4151 13.6968 10.3605 13.8427 10.2614 13.9565C10.1623 14.0703 10.0254 14.1444 9.87592 14.1651L9.79092 14.1709C9.63989 14.1709 9.49397 14.1162 9.38014 14.017C9.26632 13.9177 9.19229 13.7806 9.17175 13.6309L9.16592 13.5459L9.16508 3.79844L6.06675 6.8976C5.96088 7.00367 5.82042 7.06816 5.67097 7.07933C5.52153 7.0905 5.37304 7.04759 5.25258 6.95844L5.18258 6.8976C5.07664 6.79163 5.0123 6.65111 5.00129 6.50167C4.99028 6.35222 5.03332 6.2038 5.12258 6.08344L5.18258 6.01344Z"
                fill="black"
                fill-opacity="0.2"
              />
            </svg>