<svg xmlns="http://www.w3.org/2000/svg" width="14" height="14" viewBox="0 0 14 14" fill="none">
  <path d="M7.17502 4.25258C7.29169 4.14758 7.43169 4.08341 7.58335 4.08341C7.74085 4.08341 7.87502 4.14758 7.99752 4.25258C8.10835 4.37508 8.16669 4.51508 8.16669 4.66675C8.16669 4.82425 8.10835 4.95841 7.99752 5.08091C7.87502 5.19175 7.74085 5.25008 7.58335 5.25008C7.43169 5.25008 7.29169 5.19175 7.17502 5.08091C7.06419 4.95841 7.00002 4.82425 7.00002 4.66675C7.00002 4.51508 7.06419 4.37508 7.17502 4.25258ZM5.71669 6.98258C5.71669 6.98258 6.98252 5.97925 7.44335 5.93841C7.87502 5.90341 7.78752 6.39925 7.74669 6.65591L7.74085 6.69091C7.65919 7.00008 7.56002 7.37341 7.46085 7.72925C7.23919 8.54008 7.02335 9.33341 7.07585 9.47925C7.13419 9.67758 7.49585 9.42675 7.75835 9.25175C7.79335 9.22841 7.82252 9.20508 7.85169 9.18758C7.85169 9.18758 7.89835 9.14091 7.94502 9.20508C7.95669 9.22258 7.96835 9.24008 7.98002 9.25175C8.03252 9.33341 8.06169 9.36258 7.99169 9.40925L7.96835 9.42091C7.84002 9.50841 7.29169 9.89341 7.07002 10.0334C6.83085 10.1909 5.91502 10.7159 6.05502 9.69508C6.17752 8.97758 6.34085 8.35925 6.46919 7.87508C6.70835 7.00008 6.81335 6.60341 6.27669 6.94758C6.06085 7.07591 5.93252 7.15758 5.85669 7.21008C5.79252 7.25675 5.78669 7.25675 5.74585 7.18091L5.72835 7.14591L5.69919 7.09925C5.65835 7.04091 5.65835 7.03508 5.71669 6.98258ZM12.8334 7.00008C12.8334 10.2084 10.2084 12.8334 7.00002 12.8334C3.79169 12.8334 1.16669 10.2084 1.16669 7.00008C1.16669 3.79175 3.79169 1.16675 7.00002 1.16675C10.2084 1.16675 12.8334 3.79175 12.8334 7.00008ZM11.6667 7.00008C11.6667 4.42175 9.57835 2.33341 7.00002 2.33341C4.42169 2.33341 2.33335 4.42175 2.33335 7.00008C2.33335 9.57841 4.42169 11.6667 7.00002 11.6667C9.57835 11.6667 11.6667 9.57841 11.6667 7.00008Z" fill="black"/>
  <path d="M7.17502 4.25258C7.29169 4.14758 7.43169 4.08341 7.58335 4.08341C7.74085 4.08341 7.87502 4.14758 7.99752 4.25258C8.10835 4.37508 8.16669 4.51508 8.16669 4.66675C8.16669 4.82425 8.10835 4.95841 7.99752 5.08091C7.87502 5.19175 7.74085 5.25008 7.58335 5.25008C7.43169 5.25008 7.29169 5.19175 7.17502 5.08091C7.06419 4.95841 7.00002 4.82425 7.00002 4.66675C7.00002 4.51508 7.06419 4.37508 7.17502 4.25258ZM5.71669 6.98258C5.71669 6.98258 6.98252 5.97925 7.44335 5.93841C7.87502 5.90341 7.78752 6.39925 7.74669 6.65591L7.74085 6.69091C7.65919 7.00008 7.56002 7.37341 7.46085 7.72925C7.23919 8.54008 7.02335 9.33341 7.07585 9.47925C7.13419 9.67758 7.49585 9.42675 7.75835 9.25175C7.79335 9.22841 7.82252 9.20508 7.85169 9.18758C7.85169 9.18758 7.89835 9.14091 7.94502 9.20508C7.95669 9.22258 7.96835 9.24008 7.98002 9.25175C8.03252 9.33341 8.06169 9.36258 7.99169 9.40925L7.96835 9.42091C7.84002 9.50841 7.29169 9.89341 7.07002 10.0334C6.83085 10.1909 5.91502 10.7159 6.05502 9.69508C6.17752 8.97758 6.34085 8.35925 6.46919 7.87508C6.70835 7.00008 6.81335 6.60341 6.27669 6.94758C6.06085 7.07591 5.93252 7.15758 5.85669 7.21008C5.79252 7.25675 5.78669 7.25675 5.74585 7.18091L5.72835 7.14591L5.69919 7.09925C5.65835 7.04091 5.65835 7.03508 5.71669 6.98258ZM12.8334 7.00008C12.8334 10.2084 10.2084 12.8334 7.00002 12.8334C3.79169 12.8334 1.16669 10.2084 1.16669 7.00008C1.16669 3.79175 3.79169 1.16675 7.00002 1.16675C10.2084 1.16675 12.8334 3.79175 12.8334 7.00008ZM11.6667 7.00008C11.6667 4.42175 9.57835 2.33341 7.00002 2.33341C4.42169 2.33341 2.33335 4.42175 2.33335 7.00008C2.33335 9.57841 4.42169 11.6667 7.00002 11.6667C9.57835 11.6667 11.6667 9.57841 11.6667 7.00008Z" fill="black" fill-opacity="0.2"/>
  <path d="M7.17502 4.25258C7.29169 4.14758 7.43169 4.08341 7.58335 4.08341C7.74085 4.08341 7.87502 4.14758 7.99752 4.25258C8.10835 4.37508 8.16669 4.51508 8.16669 4.66675C8.16669 4.82425 8.10835 4.95841 7.99752 5.08091C7.87502 5.19175 7.74085 5.25008 7.58335 5.25008C7.43169 5.25008 7.29169 5.19175 7.17502 5.08091C7.06419 4.95841 7.00002 4.82425 7.00002 4.66675C7.00002 4.51508 7.06419 4.37508 7.17502 4.25258ZM5.71669 6.98258C5.71669 6.98258 6.98252 5.97925 7.44335 5.93841C7.87502 5.90341 7.78752 6.39925 7.74669 6.65591L7.74085 6.69091C7.65919 7.00008 7.56002 7.37341 7.46085 7.72925C7.23919 8.54008 7.02335 9.33341 7.07585 9.47925C7.13419 9.67758 7.49585 9.42675 7.75835 9.25175C7.79335 9.22841 7.82252 9.20508 7.85169 9.18758C7.85169 9.18758 7.89835 9.14091 7.94502 9.20508C7.95669 9.22258 7.96835 9.24008 7.98002 9.25175C8.03252 9.33341 8.06169 9.36258 7.99169 9.40925L7.96835 9.42091C7.84002 9.50841 7.29169 9.89341 7.07002 10.0334C6.83085 10.1909 5.91502 10.7159 6.05502 9.69508C6.17752 8.97758 6.34085 8.35925 6.46919 7.87508C6.70835 7.00008 6.81335 6.60341 6.27669 6.94758C6.06085 7.07591 5.93252 7.15758 5.85669 7.21008C5.79252 7.25675 5.78669 7.25675 5.74585 7.18091L5.72835 7.14591L5.69919 7.09925C5.65835 7.04091 5.65835 7.03508 5.71669 6.98258ZM12.8334 7.00008C12.8334 10.2084 10.2084 12.8334 7.00002 12.8334C3.79169 12.8334 1.16669 10.2084 1.16669 7.00008C1.16669 3.79175 3.79169 1.16675 7.00002 1.16675C10.2084 1.16675 12.8334 3.79175 12.8334 7.00008ZM11.6667 7.00008C11.6667 4.42175 9.57835 2.33341 7.00002 2.33341C4.42169 2.33341 2.33335 4.42175 2.33335 7.00008C2.33335 9.57841 4.42169 11.6667 7.00002 11.6667C9.57835 11.6667 11.6667 9.57841 11.6667 7.00008Z" fill="black" fill-opacity="0.2"/>
  <path d="M7.17502 4.25258C7.29169 4.14758 7.43169 4.08341 7.58335 4.08341C7.74085 4.08341 7.87502 4.14758 7.99752 4.25258C8.10835 4.37508 8.16669 4.51508 8.16669 4.66675C8.16669 4.82425 8.10835 4.95841 7.99752 5.08091C7.87502 5.19175 7.74085 5.25008 7.58335 5.25008C7.43169 5.25008 7.29169 5.19175 7.17502 5.08091C7.06419 4.95841 7.00002 4.82425 7.00002 4.66675C7.00002 4.51508 7.06419 4.37508 7.17502 4.25258ZM5.71669 6.98258C5.71669 6.98258 6.98252 5.97925 7.44335 5.93841C7.87502 5.90341 7.78752 6.39925 7.74669 6.65591L7.74085 6.69091C7.65919 7.00008 7.56002 7.37341 7.46085 7.72925C7.23919 8.54008 7.02335 9.33341 7.07585 9.47925C7.13419 9.67758 7.49585 9.42675 7.75835 9.25175C7.79335 9.22841 7.82252 9.20508 7.85169 9.18758C7.85169 9.18758 7.89835 9.14091 7.94502 9.20508C7.95669 9.22258 7.96835 9.24008 7.98002 9.25175C8.03252 9.33341 8.06169 9.36258 7.99169 9.40925L7.96835 9.42091C7.84002 9.50841 7.29169 9.89341 7.07002 10.0334C6.83085 10.1909 5.91502 10.7159 6.05502 9.69508C6.17752 8.97758 6.34085 8.35925 6.46919 7.87508C6.70835 7.00008 6.81335 6.60341 6.27669 6.94758C6.06085 7.07591 5.93252 7.15758 5.85669 7.21008C5.79252 7.25675 5.78669 7.25675 5.74585 7.18091L5.72835 7.14591L5.69919 7.09925C5.65835 7.04091 5.65835 7.03508 5.71669 6.98258ZM12.8334 7.00008C12.8334 10.2084 10.2084 12.8334 7.00002 12.8334C3.79169 12.8334 1.16669 10.2084 1.16669 7.00008C1.16669 3.79175 3.79169 1.16675 7.00002 1.16675C10.2084 1.16675 12.8334 3.79175 12.8334 7.00008ZM11.6667 7.00008C11.6667 4.42175 9.57835 2.33341 7.00002 2.33341C4.42169 2.33341 2.33335 4.42175 2.33335 7.00008C2.33335 9.57841 4.42169 11.6667 7.00002 11.6667C9.57835 11.6667 11.6667 9.57841 11.6667 7.00008Z" fill="black" fill-opacity="0.2"/>
  <path d="M7.17502 4.25258C7.29169 4.14758 7.43169 4.08341 7.58335 4.08341C7.74085 4.08341 7.87502 4.14758 7.99752 4.25258C8.10835 4.37508 8.16669 4.51508 8.16669 4.66675C8.16669 4.82425 8.10835 4.95841 7.99752 5.08091C7.87502 5.19175 7.74085 5.25008 7.58335 5.25008C7.43169 5.25008 7.29169 5.19175 7.17502 5.08091C7.06419 4.95841 7.00002 4.82425 7.00002 4.66675C7.00002 4.51508 7.06419 4.37508 7.17502 4.25258ZM5.71669 6.98258C5.71669 6.98258 6.98252 5.97925 7.44335 5.93841C7.87502 5.90341 7.78752 6.39925 7.74669 6.65591L7.74085 6.69091C7.65919 7.00008 7.56002 7.37341 7.46085 7.72925C7.23919 8.54008 7.02335 9.33341 7.07585 9.47925C7.13419 9.67758 7.49585 9.42675 7.75835 9.25175C7.79335 9.22841 7.82252 9.20508 7.85169 9.18758C7.85169 9.18758 7.89835 9.14091 7.94502 9.20508C7.95669 9.22258 7.96835 9.24008 7.98002 9.25175C8.03252 9.33341 8.06169 9.36258 7.99169 9.40925L7.96835 9.42091C7.84002 9.50841 7.29169 9.89341 7.07002 10.0334C6.83085 10.1909 5.91502 10.7159 6.05502 9.69508C6.17752 8.97758 6.34085 8.35925 6.46919 7.87508C6.70835 7.00008 6.81335 6.60341 6.27669 6.94758C6.06085 7.07591 5.93252 7.15758 5.85669 7.21008C5.79252 7.25675 5.78669 7.25675 5.74585 7.18091L5.72835 7.14591L5.69919 7.09925C5.65835 7.04091 5.65835 7.03508 5.71669 6.98258ZM12.8334 7.00008C12.8334 10.2084 10.2084 12.8334 7.00002 12.8334C3.79169 12.8334 1.16669 10.2084 1.16669 7.00008C1.16669 3.79175 3.79169 1.16675 7.00002 1.16675C10.2084 1.16675 12.8334 3.79175 12.8334 7.00008ZM11.6667 7.00008C11.6667 4.42175 9.57835 2.33341 7.00002 2.33341C4.42169 2.33341 2.33335 4.42175 2.33335 7.00008C2.33335 9.57841 4.42169 11.6667 7.00002 11.6667C9.57835 11.6667 11.6667 9.57841 11.6667 7.00008Z" fill="black" fill-opacity="0.2"/>
</svg>