<svg xmlns="http://www.w3.org/2000/svg" width="30" height="30" viewBox="0 0 30 30" fill="none">
  <path d="M15 12.5C15.5745 12.5 16.1434 12.3868 16.6742 12.167C17.205 11.9471 17.6873 11.6248 18.0936 11.2186C18.4998 10.8123 18.8221 10.33 19.042 9.79924C19.2618 9.26844 19.375 8.69953 19.375 8.125C19.375 7.55047 19.2618 6.98156 19.042 6.45076C18.8221 5.91996 18.4998 5.43766 18.0936 5.03141C17.6873 4.62515 17.205 4.30289 16.6742 4.08303C16.1434 3.86316 15.5745 3.75 15 3.75C13.8397 3.75 12.7269 4.21094 11.9064 5.03141C11.0859 5.85188 10.625 6.96468 10.625 8.125C10.625 9.28532 11.0859 10.3981 11.9064 11.2186C12.7269 12.0391 13.8397 12.5 15 12.5ZM3.75 25.5V26.25H26.25V25.5C26.25 22.7 26.25 21.3 25.705 20.23C25.2256 19.2892 24.4608 18.5244 23.52 18.045C22.45 17.5 21.05 17.5 18.25 17.5H11.75C8.95 17.5 7.55 17.5 6.48 18.045C5.53923 18.5244 4.77436 19.2892 4.295 20.23C3.75 21.3 3.75 22.7 3.75 25.5Z" stroke="black" stroke-width="1.16667" stroke-linecap="round" stroke-linejoin="round"/>
  <path d="M15 12.5C15.5745 12.5 16.1434 12.3868 16.6742 12.167C17.205 11.9471 17.6873 11.6248 18.0936 11.2186C18.4998 10.8123 18.8221 10.33 19.042 9.79924C19.2618 9.26844 19.375 8.69953 19.375 8.125C19.375 7.55047 19.2618 6.98156 19.042 6.45076C18.8221 5.91996 18.4998 5.43766 18.0936 5.03141C17.6873 4.62515 17.205 4.30289 16.6742 4.08303C16.1434 3.86316 15.5745 3.75 15 3.75C13.8397 3.75 12.7269 4.21094 11.9064 5.03141C11.0859 5.85188 10.625 6.96468 10.625 8.125C10.625 9.28532 11.0859 10.3981 11.9064 11.2186C12.7269 12.0391 13.8397 12.5 15 12.5ZM3.75 25.5V26.25H26.25V25.5C26.25 22.7 26.25 21.3 25.705 20.23C25.2256 19.2892 24.4608 18.5244 23.52 18.045C22.45 17.5 21.05 17.5 18.25 17.5H11.75C8.95 17.5 7.55 17.5 6.48 18.045C5.53923 18.5244 4.77436 19.2892 4.295 20.23C3.75 21.3 3.75 22.7 3.75 25.5Z" stroke="black" stroke-opacity="0.2" stroke-width="1.16667" stroke-linecap="round" stroke-linejoin="round"/>
  <path d="M15 12.5C15.5745 12.5 16.1434 12.3868 16.6742 12.167C17.205 11.9471 17.6873 11.6248 18.0936 11.2186C18.4998 10.8123 18.8221 10.33 19.042 9.79924C19.2618 9.26844 19.375 8.69953 19.375 8.125C19.375 7.55047 19.2618 6.98156 19.042 6.45076C18.8221 5.91996 18.4998 5.43766 18.0936 5.03141C17.6873 4.62515 17.205 4.30289 16.6742 4.08303C16.1434 3.86316 15.5745 3.75 15 3.75C13.8397 3.75 12.7269 4.21094 11.9064 5.03141C11.0859 5.85188 10.625 6.96468 10.625 8.125C10.625 9.28532 11.0859 10.3981 11.9064 11.2186C12.7269 12.0391 13.8397 12.5 15 12.5ZM3.75 25.5V26.25H26.25V25.5C26.25 22.7 26.25 21.3 25.705 20.23C25.2256 19.2892 24.4608 18.5244 23.52 18.045C22.45 17.5 21.05 17.5 18.25 17.5H11.75C8.95 17.5 7.55 17.5 6.48 18.045C5.53923 18.5244 4.77436 19.2892 4.295 20.23C3.75 21.3 3.75 22.7 3.75 25.5Z" stroke="black" stroke-opacity="0.2" stroke-width="1.16667" stroke-linecap="round" stroke-linejoin="round"/>
  <path d="M15 12.5C15.5745 12.5 16.1434 12.3868 16.6742 12.167C17.205 11.9471 17.6873 11.6248 18.0936 11.2186C18.4998 10.8123 18.8221 10.33 19.042 9.79924C19.2618 9.26844 19.375 8.69953 19.375 8.125C19.375 7.55047 19.2618 6.98156 19.042 6.45076C18.8221 5.91996 18.4998 5.43766 18.0936 5.03141C17.6873 4.62515 17.205 4.30289 16.6742 4.08303C16.1434 3.86316 15.5745 3.75 15 3.75C13.8397 3.75 12.7269 4.21094 11.9064 5.03141C11.0859 5.85188 10.625 6.96468 10.625 8.125C10.625 9.28532 11.0859 10.3981 11.9064 11.2186C12.7269 12.0391 13.8397 12.5 15 12.5ZM3.75 25.5V26.25H26.25V25.5C26.25 22.7 26.25 21.3 25.705 20.23C25.2256 19.2892 24.4608 18.5244 23.52 18.045C22.45 17.5 21.05 17.5 18.25 17.5H11.75C8.95 17.5 7.55 17.5 6.48 18.045C5.53923 18.5244 4.77436 19.2892 4.295 20.23C3.75 21.3 3.75 22.7 3.75 25.5Z" stroke="black" stroke-opacity="0.2" stroke-width="1.16667" stroke-linecap="round" stroke-linejoin="round"/>
  <path d="M15 12.5C15.5745 12.5 16.1434 12.3868 16.6742 12.167C17.205 11.9471 17.6873 11.6248 18.0936 11.2186C18.4998 10.8123 18.8221 10.33 19.042 9.79924C19.2618 9.26844 19.375 8.69953 19.375 8.125C19.375 7.55047 19.2618 6.98156 19.042 6.45076C18.8221 5.91996 18.4998 5.43766 18.0936 5.03141C17.6873 4.62515 17.205 4.30289 16.6742 4.08303C16.1434 3.86316 15.5745 3.75 15 3.75C13.8397 3.75 12.7269 4.21094 11.9064 5.03141C11.0859 5.85188 10.625 6.96468 10.625 8.125C10.625 9.28532 11.0859 10.3981 11.9064 11.2186C12.7269 12.0391 13.8397 12.5 15 12.5ZM3.75 25.5V26.25H26.25V25.5C26.25 22.7 26.25 21.3 25.705 20.23C25.2256 19.2892 24.4608 18.5244 23.52 18.045C22.45 17.5 21.05 17.5 18.25 17.5H11.75C8.95 17.5 7.55 17.5 6.48 18.045C5.53923 18.5244 4.77436 19.2892 4.295 20.23C3.75 21.3 3.75 22.7 3.75 25.5Z" stroke="black" stroke-opacity="0.2" stroke-width="1.16667" stroke-linecap="round" stroke-linejoin="round"/>
</svg>