<svg xmlns="http://www.w3.org/2000/svg" width="23" height="24" viewBox="0 0 23 24" fill="none">
  <path d="M22.3333 11.0033V11.9999C22.332 14.3361 21.5755 16.6092 20.1768 18.4802C18.778 20.3513 16.8119 21.7201 14.5716 22.3825C12.3314 23.0449 9.93702 22.9653 7.74567 22.1557C5.55431 21.3461 3.68337 19.8499 2.41186 17.8901C1.14036 15.9303 0.53643 13.612 0.69014 11.2809C0.843849 8.94988 1.74696 6.73095 3.26479 4.9551C4.78262 3.17924 6.83384 1.9416 9.11253 1.42676C11.3912 0.91192 13.7753 1.14747 15.9092 2.09827" stroke="black" stroke-width="1.16667" stroke-linecap="round" stroke-linejoin="round"/>
  <path d="M22.3333 11.0033V11.9999C22.332 14.3361 21.5755 16.6092 20.1768 18.4802C18.778 20.3513 16.8119 21.7201 14.5716 22.3825C12.3314 23.0449 9.93702 22.9653 7.74567 22.1557C5.55431 21.3461 3.68337 19.8499 2.41186 17.8901C1.14036 15.9303 0.53643 13.612 0.69014 11.2809C0.843849 8.94988 1.74696 6.73095 3.26479 4.9551C4.78262 3.17924 6.83384 1.9416 9.11253 1.42676C11.3912 0.91192 13.7753 1.14747 15.9092 2.09827" stroke="black" stroke-opacity="0.2" stroke-width="1.16667" stroke-linecap="round" stroke-linejoin="round"/>
  <path d="M22.3333 11.0033V11.9999C22.332 14.3361 21.5755 16.6092 20.1768 18.4802C18.778 20.3513 16.8119 21.7201 14.5716 22.3825C12.3314 23.0449 9.93702 22.9653 7.74567 22.1557C5.55431 21.3461 3.68337 19.8499 2.41186 17.8901C1.14036 15.9303 0.53643 13.612 0.69014 11.2809C0.843849 8.94988 1.74696 6.73095 3.26479 4.9551C4.78262 3.17924 6.83384 1.9416 9.11253 1.42676C11.3912 0.91192 13.7753 1.14747 15.9092 2.09827" stroke="black" stroke-opacity="0.2" stroke-width="1.16667" stroke-linecap="round" stroke-linejoin="round"/>
  <path d="M22.3333 11.0033V11.9999C22.332 14.3361 21.5755 16.6092 20.1768 18.4802C18.778 20.3513 16.8119 21.7201 14.5716 22.3825C12.3314 23.0449 9.93702 22.9653 7.74567 22.1557C5.55431 21.3461 3.68337 19.8499 2.41186 17.8901C1.14036 15.9303 0.53643 13.612 0.69014 11.2809C0.843849 8.94988 1.74696 6.73095 3.26479 4.9551C4.78262 3.17924 6.83384 1.9416 9.11253 1.42676C11.3912 0.91192 13.7753 1.14747 15.9092 2.09827" stroke="black" stroke-opacity="0.2" stroke-width="1.16667" stroke-linecap="round" stroke-linejoin="round"/>
  <path d="M22.3333 11.0033V11.9999C22.332 14.3361 21.5755 16.6092 20.1768 18.4802C18.778 20.3513 16.8119 21.7201 14.5716 22.3825C12.3314 23.0449 9.93702 22.9653 7.74567 22.1557C5.55431 21.3461 3.68337 19.8499 2.41186 17.8901C1.14036 15.9303 0.53643 13.612 0.69014 11.2809C0.843849 8.94988 1.74696 6.73095 3.26479 4.9551C4.78262 3.17924 6.83384 1.9416 9.11253 1.42676C11.3912 0.91192 13.7753 1.14747 15.9092 2.09827" stroke="black" stroke-opacity="0.2" stroke-width="1.16667" stroke-linecap="round" stroke-linejoin="round"/>
  <path d="M22.3333 3.33325L11.5 14.1774L8.25 10.9274" stroke="black" stroke-width="1.16667" stroke-linecap="round" stroke-linejoin="round"/>
  <path d="M22.3333 3.33325L11.5 14.1774L8.25 10.9274" stroke="black" stroke-opacity="0.2" stroke-width="1.16667" stroke-linecap="round" stroke-linejoin="round"/>
  <path d="M22.3333 3.33325L11.5 14.1774L8.25 10.9274" stroke="black" stroke-opacity="0.2" stroke-width="1.16667" stroke-linecap="round" stroke-linejoin="round"/>
  <path d="M22.3333 3.33325L11.5 14.1774L8.25 10.9274" stroke="black" stroke-opacity="0.2" stroke-width="1.16667" stroke-linecap="round" stroke-linejoin="round"/>
  <path d="M22.3333 3.33325L11.5 14.1774L8.25 10.9274" stroke="black" stroke-opacity="0.2" stroke-width="1.16667" stroke-linecap="round" stroke-linejoin="round"/>
</svg>