<svg xmlns="http://www.w3.org/2000/svg" width="16" height="17" viewBox="0 0 16 17" fill="none">
  <path d="M8.38094 12.8473C11.747 12.8473 14.4762 10.3452 14.4762 7.50097C14.4762 4.65677 11.747 2.54858 8.38094 2.54858C5.01485 2.54858 2.28571 4.85411 2.28571 7.6983C2.28571 8.80839 2.70171 9.83696 3.40952 10.6773L2.66666 14.1676L5.65028 12.3033C6.51485 12.6657 7.44346 12.8507 8.38094 12.8473Z" stroke="black" stroke-width="0.666667" stroke-linecap="round" stroke-linejoin="round"/>
  <path d="M8.38094 12.8473C11.747 12.8473 14.4762 10.3452 14.4762 7.50097C14.4762 4.65677 11.747 2.54858 8.38094 2.54858C5.01485 2.54858 2.28571 4.85411 2.28571 7.6983C2.28571 8.80839 2.70171 9.83696 3.40952 10.6773L2.66666 14.1676L5.65028 12.3033C6.51485 12.6657 7.44346 12.8507 8.38094 12.8473Z" stroke="black" stroke-opacity="0.2" stroke-width="0.666667" stroke-linecap="round" stroke-linejoin="round"/>
  <path d="M8.38094 12.8473C11.747 12.8473 14.4762 10.3452 14.4762 7.50097C14.4762 4.65677 11.747 2.54858 8.38094 2.54858C5.01485 2.54858 2.28571 4.85411 2.28571 7.6983C2.28571 8.80839 2.70171 9.83696 3.40952 10.6773L2.66666 14.1676L5.65028 12.3033C6.51485 12.6657 7.44346 12.8507 8.38094 12.8473Z" stroke="black" stroke-opacity="0.2" stroke-width="0.666667" stroke-linecap="round" stroke-linejoin="round"/>
  <path d="M8.38094 12.8473C11.747 12.8473 14.4762 10.3452 14.4762 7.50097C14.4762 4.65677 11.747 2.54858 8.38094 2.54858C5.01485 2.54858 2.28571 4.85411 2.28571 7.6983C2.28571 8.80839 2.70171 9.83696 3.40952 10.6773L2.66666 14.1676L5.65028 12.3033C6.51485 12.6657 7.44346 12.8507 8.38094 12.8473Z" stroke="black" stroke-opacity="0.2" stroke-width="0.666667" stroke-linecap="round" stroke-linejoin="round"/>
  <path d="M8.38094 12.8473C11.747 12.8473 14.4762 10.3452 14.4762 7.50097C14.4762 4.65677 11.747 2.54858 8.38094 2.54858C5.01485 2.54858 2.28571 4.85411 2.28571 7.6983C2.28571 8.80839 2.70171 9.83696 3.40952 10.6773L2.66666 14.1676L5.65028 12.3033C6.51485 12.6657 7.44346 12.8507 8.38094 12.8473Z" stroke="black" stroke-opacity="0.2" stroke-width="0.666667" stroke-linecap="round" stroke-linejoin="round"/>
</svg>