<svg xmlns="http://www.w3.org/2000/svg" width="50" height="50" viewBox="0 0 50 50" fill="none">
  <rect x="1" y="1" width="48" height="48" rx="3" stroke="#9DA1B4" stroke-width="2"/>
  <path d="M37.3077 13.6522H33.0431L30.9462 10.5417C30.8338 10.3752 30.6817 10.2386 30.5032 10.1441C30.3248 10.0496 30.1255 10.0001 29.9231 10H20.0769C19.8745 10.0001 19.6752 10.0496 19.4968 10.1441C19.3183 10.2386 19.1662 10.3752 19.0538 10.5417L16.9554 13.6522H12.6923C11.713 13.6522 10.7739 14.037 10.0815 14.7219C9.38901 15.4068 9 16.3357 9 17.3043V34.3478C9 35.3164 9.38901 36.2454 10.0815 36.9303C10.7739 37.6152 11.713 38 12.6923 38H37.3077C38.287 38 39.2261 37.6152 39.9186 36.9303C40.611 36.2454 41 35.3164 41 34.3478V17.3043C41 16.3357 40.611 15.4068 39.9186 14.7219C39.2261 14.037 38.287 13.6522 37.3077 13.6522ZM38.5385 34.3478C38.5385 34.6707 38.4088 34.9803 38.178 35.2087C37.9472 35.437 37.6341 35.5652 37.3077 35.5652H12.6923C12.3659 35.5652 12.0528 35.437 11.822 35.2087C11.5912 34.9803 11.4615 34.6707 11.4615 34.3478V17.3043C11.4615 16.9815 11.5912 16.6718 11.822 16.4435C12.0528 16.2152 12.3659 16.087 12.6923 16.087H17.6154C17.8181 16.0871 18.0176 16.0377 18.1964 15.9432C18.3751 15.8487 18.5275 15.712 18.64 15.5452L20.7354 12.4348H29.2631L31.36 15.5452C31.4725 15.712 31.6249 15.8487 31.8036 15.9432C31.9824 16.0377 32.1819 16.0871 32.3846 16.087H37.3077C37.6341 16.087 37.9472 16.2152 38.178 16.4435C38.4088 16.6718 38.5385 16.9815 38.5385 17.3043V34.3478ZM25 18.5217C23.6612 18.5217 22.3524 18.9144 21.2392 19.6502C20.126 20.3859 19.2584 21.4316 18.746 22.6551C18.2337 23.8785 18.0996 25.2248 18.3608 26.5236C18.622 27.8225 19.2667 29.0155 20.2134 29.9519C21.1601 30.8883 22.3663 31.526 23.6794 31.7844C24.9925 32.0427 26.3536 31.9101 27.5905 31.4034C28.8274 30.8966 29.8846 30.0384 30.6284 28.9373C31.3722 27.8362 31.7692 26.5417 31.7692 25.2174C31.7672 23.4422 31.0534 21.7403 29.7843 20.4851C28.5153 19.2298 26.7947 18.5238 25 18.5217ZM25 29.4783C24.148 29.4783 23.3152 29.2284 22.6068 28.7602C21.8984 28.292 21.3463 27.6265 21.0202 26.848C20.6942 26.0694 20.6089 25.2127 20.7751 24.3861C20.9413 23.5596 21.3516 22.8004 21.954 22.2045C22.5564 21.6086 23.324 21.2028 24.1596 21.0384C24.9952 20.874 25.8614 20.9584 26.6485 21.2809C27.4356 21.6034 28.1084 22.1495 28.5817 22.8502C29.055 23.5509 29.3077 24.3747 29.3077 25.2174C29.3077 26.3474 28.8538 27.4312 28.046 28.2303C27.2382 29.0293 26.1425 29.4783 25 29.4783Z" fill="#9DA1B4"/>
</svg>