<svg xmlns="http://www.w3.org/2000/svg" width="20" height="20" viewBox="0 0 20 20" fill="none">
  <path d="M17.4219 4.45302C16.5728 3.60603 15.4228 3.12972 14.2235 3.12826C13.0242 3.1268 11.8731 3.60029 11.0219 4.4452L10 5.39442L8.97736 4.44208C8.12639 3.59349 6.97317 3.1177 5.7714 3.11939C4.56962 3.12107 3.41774 3.60009 2.56915 4.45106C1.72057 5.30204 1.24478 6.45525 1.24646 7.65703C1.24815 8.8588 1.72717 10.0107 2.57814 10.8593L9.55861 17.9421C9.61676 18.0011 9.68608 18.048 9.76253 18.08C9.83898 18.1121 9.92104 18.1285 10.0039 18.1285C10.0868 18.1285 10.1689 18.1121 10.2453 18.08C10.3218 18.048 10.3911 18.0011 10.4492 17.9421L17.4219 10.8593C18.2711 10.0096 18.7481 8.85744 18.7481 7.65614C18.7481 6.45485 18.2711 5.30271 17.4219 4.45302ZM16.5352 9.98114L10 16.6093L3.46095 9.97489C2.84557 9.35951 2.49985 8.52487 2.49985 7.65458C2.49985 6.78429 2.84557 5.94965 3.46095 5.33427C4.07634 4.71888 4.91098 4.37316 5.78126 4.37316C6.65155 4.37316 7.48619 4.71888 8.10158 5.33427L8.1172 5.34989L9.57423 6.70536C9.68989 6.81299 9.84202 6.87283 10 6.87283C10.158 6.87283 10.3101 6.81299 10.4258 6.70536L11.8828 5.34989L11.8985 5.33427C12.5143 4.7193 13.3491 4.37414 14.2194 4.37472C15.0897 4.37531 15.9241 4.72159 16.5391 5.33739C17.154 5.95319 17.4992 6.78807 17.4986 7.65835C17.498 8.52864 17.1518 9.36305 16.536 9.97802L16.5352 9.98114Z" fill="black"/>
  <path d="M17.4219 4.45302C16.5728 3.60603 15.4228 3.12972 14.2235 3.12826C13.0242 3.1268 11.8731 3.60029 11.0219 4.4452L10 5.39442L8.97736 4.44208C8.12639 3.59349 6.97317 3.1177 5.7714 3.11939C4.56962 3.12107 3.41774 3.60009 2.56915 4.45106C1.72057 5.30204 1.24478 6.45525 1.24646 7.65703C1.24815 8.8588 1.72717 10.0107 2.57814 10.8593L9.55861 17.9421C9.61676 18.0011 9.68608 18.048 9.76253 18.08C9.83898 18.1121 9.92104 18.1285 10.0039 18.1285C10.0868 18.1285 10.1689 18.1121 10.2453 18.08C10.3218 18.048 10.3911 18.0011 10.4492 17.9421L17.4219 10.8593C18.2711 10.0096 18.7481 8.85744 18.7481 7.65614C18.7481 6.45485 18.2711 5.30271 17.4219 4.45302ZM16.5352 9.98114L10 16.6093L3.46095 9.97489C2.84557 9.35951 2.49985 8.52487 2.49985 7.65458C2.49985 6.78429 2.84557 5.94965 3.46095 5.33427C4.07634 4.71888 4.91098 4.37316 5.78126 4.37316C6.65155 4.37316 7.48619 4.71888 8.10158 5.33427L8.1172 5.34989L9.57423 6.70536C9.68989 6.81299 9.84202 6.87283 10 6.87283C10.158 6.87283 10.3101 6.81299 10.4258 6.70536L11.8828 5.34989L11.8985 5.33427C12.5143 4.7193 13.3491 4.37414 14.2194 4.37472C15.0897 4.37531 15.9241 4.72159 16.5391 5.33739C17.154 5.95319 17.4992 6.78807 17.4986 7.65835C17.498 8.52864 17.1518 9.36305 16.536 9.97802L16.5352 9.98114Z" fill="black" fill-opacity="0.2"/>
  <path d="M17.4219 4.45302C16.5728 3.60603 15.4228 3.12972 14.2235 3.12826C13.0242 3.1268 11.8731 3.60029 11.0219 4.4452L10 5.39442L8.97736 4.44208C8.12639 3.59349 6.97317 3.1177 5.7714 3.11939C4.56962 3.12107 3.41774 3.60009 2.56915 4.45106C1.72057 5.30204 1.24478 6.45525 1.24646 7.65703C1.24815 8.8588 1.72717 10.0107 2.57814 10.8593L9.55861 17.9421C9.61676 18.0011 9.68608 18.048 9.76253 18.08C9.83898 18.1121 9.92104 18.1285 10.0039 18.1285C10.0868 18.1285 10.1689 18.1121 10.2453 18.08C10.3218 18.048 10.3911 18.0011 10.4492 17.9421L17.4219 10.8593C18.2711 10.0096 18.7481 8.85744 18.7481 7.65614C18.7481 6.45485 18.2711 5.30271 17.4219 4.45302ZM16.5352 9.98114L10 16.6093L3.46095 9.97489C2.84557 9.35951 2.49985 8.52487 2.49985 7.65458C2.49985 6.78429 2.84557 5.94965 3.46095 5.33427C4.07634 4.71888 4.91098 4.37316 5.78126 4.37316C6.65155 4.37316 7.48619 4.71888 8.10158 5.33427L8.1172 5.34989L9.57423 6.70536C9.68989 6.81299 9.84202 6.87283 10 6.87283C10.158 6.87283 10.3101 6.81299 10.4258 6.70536L11.8828 5.34989L11.8985 5.33427C12.5143 4.7193 13.3491 4.37414 14.2194 4.37472C15.0897 4.37531 15.9241 4.72159 16.5391 5.33739C17.154 5.95319 17.4992 6.78807 17.4986 7.65835C17.498 8.52864 17.1518 9.36305 16.536 9.97802L16.5352 9.98114Z" fill="black" fill-opacity="0.2"/>
  <path d="M17.4219 4.45302C16.5728 3.60603 15.4228 3.12972 14.2235 3.12826C13.0242 3.1268 11.8731 3.60029 11.0219 4.4452L10 5.39442L8.97736 4.44208C8.12639 3.59349 6.97317 3.1177 5.7714 3.11939C4.56962 3.12107 3.41774 3.60009 2.56915 4.45106C1.72057 5.30204 1.24478 6.45525 1.24646 7.65703C1.24815 8.8588 1.72717 10.0107 2.57814 10.8593L9.55861 17.9421C9.61676 18.0011 9.68608 18.048 9.76253 18.08C9.83898 18.1121 9.92104 18.1285 10.0039 18.1285C10.0868 18.1285 10.1689 18.1121 10.2453 18.08C10.3218 18.048 10.3911 18.0011 10.4492 17.9421L17.4219 10.8593C18.2711 10.0096 18.7481 8.85744 18.7481 7.65614C18.7481 6.45485 18.2711 5.30271 17.4219 4.45302ZM16.5352 9.98114L10 16.6093L3.46095 9.97489C2.84557 9.35951 2.49985 8.52487 2.49985 7.65458C2.49985 6.78429 2.84557 5.94965 3.46095 5.33427C4.07634 4.71888 4.91098 4.37316 5.78126 4.37316C6.65155 4.37316 7.48619 4.71888 8.10158 5.33427L8.1172 5.34989L9.57423 6.70536C9.68989 6.81299 9.84202 6.87283 10 6.87283C10.158 6.87283 10.3101 6.81299 10.4258 6.70536L11.8828 5.34989L11.8985 5.33427C12.5143 4.7193 13.3491 4.37414 14.2194 4.37472C15.0897 4.37531 15.9241 4.72159 16.5391 5.33739C17.154 5.95319 17.4992 6.78807 17.4986 7.65835C17.498 8.52864 17.1518 9.36305 16.536 9.97802L16.5352 9.98114Z" fill="black" fill-opacity="0.2"/>
  <path d="M17.4219 4.45302C16.5728 3.60603 15.4228 3.12972 14.2235 3.12826C13.0242 3.1268 11.8731 3.60029 11.0219 4.4452L10 5.39442L8.97736 4.44208C8.12639 3.59349 6.97317 3.1177 5.7714 3.11939C4.56962 3.12107 3.41774 3.60009 2.56915 4.45106C1.72057 5.30204 1.24478 6.45525 1.24646 7.65703C1.24815 8.8588 1.72717 10.0107 2.57814 10.8593L9.55861 17.9421C9.61676 18.0011 9.68608 18.048 9.76253 18.08C9.83898 18.1121 9.92104 18.1285 10.0039 18.1285C10.0868 18.1285 10.1689 18.1121 10.2453 18.08C10.3218 18.048 10.3911 18.0011 10.4492 17.9421L17.4219 10.8593C18.2711 10.0096 18.7481 8.85744 18.7481 7.65614C18.7481 6.45485 18.2711 5.30271 17.4219 4.45302ZM16.5352 9.98114L10 16.6093L3.46095 9.97489C2.84557 9.35951 2.49985 8.52487 2.49985 7.65458C2.49985 6.78429 2.84557 5.94965 3.46095 5.33427C4.07634 4.71888 4.91098 4.37316 5.78126 4.37316C6.65155 4.37316 7.48619 4.71888 8.10158 5.33427L8.1172 5.34989L9.57423 6.70536C9.68989 6.81299 9.84202 6.87283 10 6.87283C10.158 6.87283 10.3101 6.81299 10.4258 6.70536L11.8828 5.34989L11.8985 5.33427C12.5143 4.7193 13.3491 4.37414 14.2194 4.37472C15.0897 4.37531 15.9241 4.72159 16.5391 5.33739C17.154 5.95319 17.4992 6.78807 17.4986 7.65835C17.498 8.52864 17.1518 9.36305 16.536 9.97802L16.5352 9.98114Z" fill="black" fill-opacity="0.2"/>
</svg>