<svg xmlns="http://www.w3.org/2000/svg" width="20" height="20" viewBox="0 0 20 20" fill="none">
  <path d="M2.91668 6.66661C2.91684 5.87654 3.12124 5.09992 3.51003 4.41213C3.89882 3.72434 4.4588 3.14873 5.13563 2.74116C5.81246 2.33359 6.58315 2.1079 7.37292 2.08599C8.16268 2.06408 8.94471 2.2467 9.64309 2.61612C10.3415 2.98554 10.9325 3.52923 11.3588 4.1944C11.7851 4.85958 12.0323 5.62367 12.0762 6.41252C12.1202 7.20136 11.9595 7.98818 11.6097 8.69661C11.26 9.40505 10.733 10.011 10.08 10.4558C11.4863 10.9716 12.706 11.8964 13.5822 13.1112C14.4584 14.326 14.9511 15.7753 14.9967 17.2724C14.9947 17.4339 14.9305 17.5883 14.8174 17.7035C14.7043 17.8186 14.551 17.8856 14.3897 17.8905C14.2283 17.8953 14.0713 17.8376 13.9515 17.7294C13.8317 17.6213 13.7583 17.471 13.7467 17.3099C13.6971 15.6862 13.0171 14.1455 11.851 13.0144C10.6848 11.8834 9.12414 11.2509 7.49959 11.2509C5.87505 11.2509 4.31434 11.8834 3.1482 13.0144C1.98206 14.1455 1.30214 15.6862 1.25251 17.3099C1.24417 17.4731 1.17224 17.6266 1.05214 17.7374C0.932045 17.8482 0.773326 17.9076 0.609989 17.9028C0.446651 17.898 0.291688 17.8294 0.178295 17.7117C0.0649031 17.5941 0.0021015 17.4367 0.00334452 17.2733C0.048804 15.776 0.54135 14.3265 1.41758 13.1115C2.29382 11.8965 3.51363 10.9716 4.92001 10.4558C4.30237 10.0355 3.79692 9.47046 3.44774 8.81C3.09855 8.14954 2.91623 7.41369 2.91668 6.66661ZM7.50001 3.33327C6.61596 3.33327 5.76811 3.68446 5.14299 4.30958C4.51787 4.93471 4.16668 5.78255 4.16668 6.66661C4.16668 7.55066 4.51787 8.39851 5.14299 9.02363C5.76811 9.64875 6.61596 9.99994 7.50001 9.99994C8.38407 9.99994 9.23191 9.64875 9.85703 9.02363C10.4822 8.39851 10.8333 7.55066 10.8333 6.66661C10.8333 5.78255 10.4822 4.93471 9.85703 4.30958C9.23191 3.68446 8.38407 3.33327 7.50001 3.33327ZM14.4083 6.66661C14.285 6.66661 14.165 6.67494 14.0467 6.69161C13.9641 6.7064 13.8793 6.7044 13.7975 6.68573C13.7156 6.66706 13.6384 6.6321 13.5704 6.58293C13.5024 6.53376 13.4449 6.4714 13.4016 6.39956C13.3582 6.32771 13.3297 6.24787 13.3178 6.16478C13.3059 6.08169 13.3109 5.99706 13.3325 5.91594C13.354 5.83482 13.3917 5.75888 13.4432 5.69263C13.4947 5.62638 13.5591 5.57119 13.6324 5.53036C13.7058 5.48952 13.7866 5.46387 13.87 5.45494C14.6988 5.33511 15.544 5.49427 16.2724 5.90738C17.0008 6.32048 17.5712 6.96408 17.8938 7.73688C18.2164 8.50968 18.2729 9.36781 18.0544 10.1762C17.8358 10.9846 17.3547 11.6974 16.6867 12.2024C17.6687 12.6421 18.5024 13.3566 19.0874 14.2596C19.6724 15.1627 19.9835 16.2157 19.9833 17.2916C19.9833 17.4574 19.9175 17.6163 19.8003 17.7335C19.6831 17.8508 19.5241 17.9166 19.3583 17.9166C19.1926 17.9166 19.0336 17.8508 18.9164 17.7335C18.7992 17.6163 18.7333 17.4574 18.7333 17.2916C18.7332 16.3617 18.4336 15.4566 17.8789 14.7103C17.3241 13.9641 16.5437 13.4163 15.6533 13.1483L15.2083 13.0149V11.6183L15.55 11.4441C16.0565 11.1876 16.4617 10.7678 16.7003 10.2526C16.9388 9.73747 16.9968 9.15692 16.8649 8.60474C16.7329 8.05255 16.4187 7.56095 15.973 7.20929C15.5273 6.85764 14.9761 6.66646 14.4083 6.66661Z" fill="black"/>
  <path d="M2.91668 6.66661C2.91684 5.87654 3.12124 5.09992 3.51003 4.41213C3.89882 3.72434 4.4588 3.14873 5.13563 2.74116C5.81246 2.33359 6.58315 2.1079 7.37292 2.08599C8.16268 2.06408 8.94471 2.2467 9.64309 2.61612C10.3415 2.98554 10.9325 3.52923 11.3588 4.1944C11.7851 4.85958 12.0323 5.62367 12.0762 6.41252C12.1202 7.20136 11.9595 7.98818 11.6097 8.69661C11.26 9.40505 10.733 10.011 10.08 10.4558C11.4863 10.9716 12.706 11.8964 13.5822 13.1112C14.4584 14.326 14.9511 15.7753 14.9967 17.2724C14.9947 17.4339 14.9305 17.5883 14.8174 17.7035C14.7043 17.8186 14.551 17.8856 14.3897 17.8905C14.2283 17.8953 14.0713 17.8376 13.9515 17.7294C13.8317 17.6213 13.7583 17.471 13.7467 17.3099C13.6971 15.6862 13.0171 14.1455 11.851 13.0144C10.6848 11.8834 9.12414 11.2509 7.49959 11.2509C5.87505 11.2509 4.31434 11.8834 3.1482 13.0144C1.98206 14.1455 1.30214 15.6862 1.25251 17.3099C1.24417 17.4731 1.17224 17.6266 1.05214 17.7374C0.932045 17.8482 0.773326 17.9076 0.609989 17.9028C0.446651 17.898 0.291688 17.8294 0.178295 17.7117C0.0649031 17.5941 0.0021015 17.4367 0.00334452 17.2733C0.048804 15.776 0.54135 14.3265 1.41758 13.1115C2.29382 11.8965 3.51363 10.9716 4.92001 10.4558C4.30237 10.0355 3.79692 9.47046 3.44774 8.81C3.09855 8.14954 2.91623 7.41369 2.91668 6.66661ZM7.50001 3.33327C6.61596 3.33327 5.76811 3.68446 5.14299 4.30958C4.51787 4.93471 4.16668 5.78255 4.16668 6.66661C4.16668 7.55066 4.51787 8.39851 5.14299 9.02363C5.76811 9.64875 6.61596 9.99994 7.50001 9.99994C8.38407 9.99994 9.23191 9.64875 9.85703 9.02363C10.4822 8.39851 10.8333 7.55066 10.8333 6.66661C10.8333 5.78255 10.4822 4.93471 9.85703 4.30958C9.23191 3.68446 8.38407 3.33327 7.50001 3.33327ZM14.4083 6.66661C14.285 6.66661 14.165 6.67494 14.0467 6.69161C13.9641 6.7064 13.8793 6.7044 13.7975 6.68573C13.7156 6.66706 13.6384 6.6321 13.5704 6.58293C13.5024 6.53376 13.4449 6.4714 13.4016 6.39956C13.3582 6.32771 13.3297 6.24787 13.3178 6.16478C13.3059 6.08169 13.3109 5.99706 13.3325 5.91594C13.354 5.83482 13.3917 5.75888 13.4432 5.69263C13.4947 5.62638 13.5591 5.57119 13.6324 5.53036C13.7058 5.48952 13.7866 5.46387 13.87 5.45494C14.6988 5.33511 15.544 5.49427 16.2724 5.90738C17.0008 6.32048 17.5712 6.96408 17.8938 7.73688C18.2164 8.50968 18.2729 9.36781 18.0544 10.1762C17.8358 10.9846 17.3547 11.6974 16.6867 12.2024C17.6687 12.6421 18.5024 13.3566 19.0874 14.2596C19.6724 15.1627 19.9835 16.2157 19.9833 17.2916C19.9833 17.4574 19.9175 17.6163 19.8003 17.7335C19.6831 17.8508 19.5241 17.9166 19.3583 17.9166C19.1926 17.9166 19.0336 17.8508 18.9164 17.7335C18.7992 17.6163 18.7333 17.4574 18.7333 17.2916C18.7332 16.3617 18.4336 15.4566 17.8789 14.7103C17.3241 13.9641 16.5437 13.4163 15.6533 13.1483L15.2083 13.0149V11.6183L15.55 11.4441C16.0565 11.1876 16.4617 10.7678 16.7003 10.2526C16.9388 9.73747 16.9968 9.15692 16.8649 8.60474C16.7329 8.05255 16.4187 7.56095 15.973 7.20929C15.5273 6.85764 14.9761 6.66646 14.4083 6.66661Z" fill="black" fill-opacity="0.2"/>
  <path d="M2.91668 6.66661C2.91684 5.87654 3.12124 5.09992 3.51003 4.41213C3.89882 3.72434 4.4588 3.14873 5.13563 2.74116C5.81246 2.33359 6.58315 2.1079 7.37292 2.08599C8.16268 2.06408 8.94471 2.2467 9.64309 2.61612C10.3415 2.98554 10.9325 3.52923 11.3588 4.1944C11.7851 4.85958 12.0323 5.62367 12.0762 6.41252C12.1202 7.20136 11.9595 7.98818 11.6097 8.69661C11.26 9.40505 10.733 10.011 10.08 10.4558C11.4863 10.9716 12.706 11.8964 13.5822 13.1112C14.4584 14.326 14.9511 15.7753 14.9967 17.2724C14.9947 17.4339 14.9305 17.5883 14.8174 17.7035C14.7043 17.8186 14.551 17.8856 14.3897 17.8905C14.2283 17.8953 14.0713 17.8376 13.9515 17.7294C13.8317 17.6213 13.7583 17.471 13.7467 17.3099C13.6971 15.6862 13.0171 14.1455 11.851 13.0144C10.6848 11.8834 9.12414 11.2509 7.49959 11.2509C5.87505 11.2509 4.31434 11.8834 3.1482 13.0144C1.98206 14.1455 1.30214 15.6862 1.25251 17.3099C1.24417 17.4731 1.17224 17.6266 1.05214 17.7374C0.932045 17.8482 0.773326 17.9076 0.609989 17.9028C0.446651 17.898 0.291688 17.8294 0.178295 17.7117C0.0649031 17.5941 0.0021015 17.4367 0.00334452 17.2733C0.048804 15.776 0.54135 14.3265 1.41758 13.1115C2.29382 11.8965 3.51363 10.9716 4.92001 10.4558C4.30237 10.0355 3.79692 9.47046 3.44774 8.81C3.09855 8.14954 2.91623 7.41369 2.91668 6.66661ZM7.50001 3.33327C6.61596 3.33327 5.76811 3.68446 5.14299 4.30958C4.51787 4.93471 4.16668 5.78255 4.16668 6.66661C4.16668 7.55066 4.51787 8.39851 5.14299 9.02363C5.76811 9.64875 6.61596 9.99994 7.50001 9.99994C8.38407 9.99994 9.23191 9.64875 9.85703 9.02363C10.4822 8.39851 10.8333 7.55066 10.8333 6.66661C10.8333 5.78255 10.4822 4.93471 9.85703 4.30958C9.23191 3.68446 8.38407 3.33327 7.50001 3.33327ZM14.4083 6.66661C14.285 6.66661 14.165 6.67494 14.0467 6.69161C13.9641 6.7064 13.8793 6.7044 13.7975 6.68573C13.7156 6.66706 13.6384 6.6321 13.5704 6.58293C13.5024 6.53376 13.4449 6.4714 13.4016 6.39956C13.3582 6.32771 13.3297 6.24787 13.3178 6.16478C13.3059 6.08169 13.3109 5.99706 13.3325 5.91594C13.354 5.83482 13.3917 5.75888 13.4432 5.69263C13.4947 5.62638 13.5591 5.57119 13.6324 5.53036C13.7058 5.48952 13.7866 5.46387 13.87 5.45494C14.6988 5.33511 15.544 5.49427 16.2724 5.90738C17.0008 6.32048 17.5712 6.96408 17.8938 7.73688C18.2164 8.50968 18.2729 9.36781 18.0544 10.1762C17.8358 10.9846 17.3547 11.6974 16.6867 12.2024C17.6687 12.6421 18.5024 13.3566 19.0874 14.2596C19.6724 15.1627 19.9835 16.2157 19.9833 17.2916C19.9833 17.4574 19.9175 17.6163 19.8003 17.7335C19.6831 17.8508 19.5241 17.9166 19.3583 17.9166C19.1926 17.9166 19.0336 17.8508 18.9164 17.7335C18.7992 17.6163 18.7333 17.4574 18.7333 17.2916C18.7332 16.3617 18.4336 15.4566 17.8789 14.7103C17.3241 13.9641 16.5437 13.4163 15.6533 13.1483L15.2083 13.0149V11.6183L15.55 11.4441C16.0565 11.1876 16.4617 10.7678 16.7003 10.2526C16.9388 9.73747 16.9968 9.15692 16.8649 8.60474C16.7329 8.05255 16.4187 7.56095 15.973 7.20929C15.5273 6.85764 14.9761 6.66646 14.4083 6.66661Z" fill="black" fill-opacity="0.2"/>
  <path d="M2.91668 6.66661C2.91684 5.87654 3.12124 5.09992 3.51003 4.41213C3.89882 3.72434 4.4588 3.14873 5.13563 2.74116C5.81246 2.33359 6.58315 2.1079 7.37292 2.08599C8.16268 2.06408 8.94471 2.2467 9.64309 2.61612C10.3415 2.98554 10.9325 3.52923 11.3588 4.1944C11.7851 4.85958 12.0323 5.62367 12.0762 6.41252C12.1202 7.20136 11.9595 7.98818 11.6097 8.69661C11.26 9.40505 10.733 10.011 10.08 10.4558C11.4863 10.9716 12.706 11.8964 13.5822 13.1112C14.4584 14.326 14.9511 15.7753 14.9967 17.2724C14.9947 17.4339 14.9305 17.5883 14.8174 17.7035C14.7043 17.8186 14.551 17.8856 14.3897 17.8905C14.2283 17.8953 14.0713 17.8376 13.9515 17.7294C13.8317 17.6213 13.7583 17.471 13.7467 17.3099C13.6971 15.6862 13.0171 14.1455 11.851 13.0144C10.6848 11.8834 9.12414 11.2509 7.49959 11.2509C5.87505 11.2509 4.31434 11.8834 3.1482 13.0144C1.98206 14.1455 1.30214 15.6862 1.25251 17.3099C1.24417 17.4731 1.17224 17.6266 1.05214 17.7374C0.932045 17.8482 0.773326 17.9076 0.609989 17.9028C0.446651 17.898 0.291688 17.8294 0.178295 17.7117C0.0649031 17.5941 0.0021015 17.4367 0.00334452 17.2733C0.048804 15.776 0.54135 14.3265 1.41758 13.1115C2.29382 11.8965 3.51363 10.9716 4.92001 10.4558C4.30237 10.0355 3.79692 9.47046 3.44774 8.81C3.09855 8.14954 2.91623 7.41369 2.91668 6.66661ZM7.50001 3.33327C6.61596 3.33327 5.76811 3.68446 5.14299 4.30958C4.51787 4.93471 4.16668 5.78255 4.16668 6.66661C4.16668 7.55066 4.51787 8.39851 5.14299 9.02363C5.76811 9.64875 6.61596 9.99994 7.50001 9.99994C8.38407 9.99994 9.23191 9.64875 9.85703 9.02363C10.4822 8.39851 10.8333 7.55066 10.8333 6.66661C10.8333 5.78255 10.4822 4.93471 9.85703 4.30958C9.23191 3.68446 8.38407 3.33327 7.50001 3.33327ZM14.4083 6.66661C14.285 6.66661 14.165 6.67494 14.0467 6.69161C13.9641 6.7064 13.8793 6.7044 13.7975 6.68573C13.7156 6.66706 13.6384 6.6321 13.5704 6.58293C13.5024 6.53376 13.4449 6.4714 13.4016 6.39956C13.3582 6.32771 13.3297 6.24787 13.3178 6.16478C13.3059 6.08169 13.3109 5.99706 13.3325 5.91594C13.354 5.83482 13.3917 5.75888 13.4432 5.69263C13.4947 5.62638 13.5591 5.57119 13.6324 5.53036C13.7058 5.48952 13.7866 5.46387 13.87 5.45494C14.6988 5.33511 15.544 5.49427 16.2724 5.90738C17.0008 6.32048 17.5712 6.96408 17.8938 7.73688C18.2164 8.50968 18.2729 9.36781 18.0544 10.1762C17.8358 10.9846 17.3547 11.6974 16.6867 12.2024C17.6687 12.6421 18.5024 13.3566 19.0874 14.2596C19.6724 15.1627 19.9835 16.2157 19.9833 17.2916C19.9833 17.4574 19.9175 17.6163 19.8003 17.7335C19.6831 17.8508 19.5241 17.9166 19.3583 17.9166C19.1926 17.9166 19.0336 17.8508 18.9164 17.7335C18.7992 17.6163 18.7333 17.4574 18.7333 17.2916C18.7332 16.3617 18.4336 15.4566 17.8789 14.7103C17.3241 13.9641 16.5437 13.4163 15.6533 13.1483L15.2083 13.0149V11.6183L15.55 11.4441C16.0565 11.1876 16.4617 10.7678 16.7003 10.2526C16.9388 9.73747 16.9968 9.15692 16.8649 8.60474C16.7329 8.05255 16.4187 7.56095 15.973 7.20929C15.5273 6.85764 14.9761 6.66646 14.4083 6.66661Z" fill="black" fill-opacity="0.2"/>
  <path d="M2.91668 6.66661C2.91684 5.87654 3.12124 5.09992 3.51003 4.41213C3.89882 3.72434 4.4588 3.14873 5.13563 2.74116C5.81246 2.33359 6.58315 2.1079 7.37292 2.08599C8.16268 2.06408 8.94471 2.2467 9.64309 2.61612C10.3415 2.98554 10.9325 3.52923 11.3588 4.1944C11.7851 4.85958 12.0323 5.62367 12.0762 6.41252C12.1202 7.20136 11.9595 7.98818 11.6097 8.69661C11.26 9.40505 10.733 10.011 10.08 10.4558C11.4863 10.9716 12.706 11.8964 13.5822 13.1112C14.4584 14.326 14.9511 15.7753 14.9967 17.2724C14.9947 17.4339 14.9305 17.5883 14.8174 17.7035C14.7043 17.8186 14.551 17.8856 14.3897 17.8905C14.2283 17.8953 14.0713 17.8376 13.9515 17.7294C13.8317 17.6213 13.7583 17.471 13.7467 17.3099C13.6971 15.6862 13.0171 14.1455 11.851 13.0144C10.6848 11.8834 9.12414 11.2509 7.49959 11.2509C5.87505 11.2509 4.31434 11.8834 3.1482 13.0144C1.98206 14.1455 1.30214 15.6862 1.25251 17.3099C1.24417 17.4731 1.17224 17.6266 1.05214 17.7374C0.932045 17.8482 0.773326 17.9076 0.609989 17.9028C0.446651 17.898 0.291688 17.8294 0.178295 17.7117C0.0649031 17.5941 0.0021015 17.4367 0.00334452 17.2733C0.048804 15.776 0.54135 14.3265 1.41758 13.1115C2.29382 11.8965 3.51363 10.9716 4.92001 10.4558C4.30237 10.0355 3.79692 9.47046 3.44774 8.81C3.09855 8.14954 2.91623 7.41369 2.91668 6.66661ZM7.50001 3.33327C6.61596 3.33327 5.76811 3.68446 5.14299 4.30958C4.51787 4.93471 4.16668 5.78255 4.16668 6.66661C4.16668 7.55066 4.51787 8.39851 5.14299 9.02363C5.76811 9.64875 6.61596 9.99994 7.50001 9.99994C8.38407 9.99994 9.23191 9.64875 9.85703 9.02363C10.4822 8.39851 10.8333 7.55066 10.8333 6.66661C10.8333 5.78255 10.4822 4.93471 9.85703 4.30958C9.23191 3.68446 8.38407 3.33327 7.50001 3.33327ZM14.4083 6.66661C14.285 6.66661 14.165 6.67494 14.0467 6.69161C13.9641 6.7064 13.8793 6.7044 13.7975 6.68573C13.7156 6.66706 13.6384 6.6321 13.5704 6.58293C13.5024 6.53376 13.4449 6.4714 13.4016 6.39956C13.3582 6.32771 13.3297 6.24787 13.3178 6.16478C13.3059 6.08169 13.3109 5.99706 13.3325 5.91594C13.354 5.83482 13.3917 5.75888 13.4432 5.69263C13.4947 5.62638 13.5591 5.57119 13.6324 5.53036C13.7058 5.48952 13.7866 5.46387 13.87 5.45494C14.6988 5.33511 15.544 5.49427 16.2724 5.90738C17.0008 6.32048 17.5712 6.96408 17.8938 7.73688C18.2164 8.50968 18.2729 9.36781 18.0544 10.1762C17.8358 10.9846 17.3547 11.6974 16.6867 12.2024C17.6687 12.6421 18.5024 13.3566 19.0874 14.2596C19.6724 15.1627 19.9835 16.2157 19.9833 17.2916C19.9833 17.4574 19.9175 17.6163 19.8003 17.7335C19.6831 17.8508 19.5241 17.9166 19.3583 17.9166C19.1926 17.9166 19.0336 17.8508 18.9164 17.7335C18.7992 17.6163 18.7333 17.4574 18.7333 17.2916C18.7332 16.3617 18.4336 15.4566 17.8789 14.7103C17.3241 13.9641 16.5437 13.4163 15.6533 13.1483L15.2083 13.0149V11.6183L15.55 11.4441C16.0565 11.1876 16.4617 10.7678 16.7003 10.2526C16.9388 9.73747 16.9968 9.15692 16.8649 8.60474C16.7329 8.05255 16.4187 7.56095 15.973 7.20929C15.5273 6.85764 14.9761 6.66646 14.4083 6.66661Z" fill="black" fill-opacity="0.2"/>
</svg>