<svg xmlns="http://www.w3.org/2000/svg" width="16" height="17" viewBox="0 0 16 17" fill="none">
  <path d="M6.19334 11.3495L8.78 8.76285L6.19334 6.17618C6.13162 6.11446 6.08266 6.04119 6.04925 5.96055C6.01585 5.8799 5.99866 5.79347 5.99866 5.70618C5.99866 5.6189 6.01585 5.53247 6.04925 5.45182C6.08266 5.37118 6.13162 5.29791 6.19334 5.23618C6.25506 5.17446 6.32833 5.1255 6.40898 5.0921C6.48962 5.0587 6.57605 5.0415 6.66334 5.0415C6.75062 5.0415 6.83706 5.0587 6.9177 5.0921C6.99834 5.1255 7.07162 5.17446 7.13334 5.23618L10.1933 8.29618C10.4533 8.55618 10.4533 8.97618 10.1933 9.23618L7.13334 12.2962C7.07166 12.358 6.9984 12.407 6.91775 12.4405C6.8371 12.4739 6.75065 12.4911 6.66334 12.4911C6.57603 12.4911 6.48957 12.4739 6.40892 12.4405C6.32827 12.407 6.25501 12.358 6.19334 12.2962C5.94 12.0362 5.93334 11.6095 6.19334 11.3495Z" fill="#919191"/>
  <path d="M6.19334 11.3495L8.78 8.76285L6.19334 6.17618C6.13162 6.11446 6.08266 6.04119 6.04925 5.96055C6.01585 5.8799 5.99866 5.79347 5.99866 5.70618C5.99866 5.6189 6.01585 5.53247 6.04925 5.45182C6.08266 5.37118 6.13162 5.29791 6.19334 5.23618C6.25506 5.17446 6.32833 5.1255 6.40898 5.0921C6.48962 5.0587 6.57605 5.0415 6.66334 5.0415C6.75062 5.0415 6.83706 5.0587 6.9177 5.0921C6.99834 5.1255 7.07162 5.17446 7.13334 5.23618L10.1933 8.29618C10.4533 8.55618 10.4533 8.97618 10.1933 9.23618L7.13334 12.2962C7.07166 12.358 6.9984 12.407 6.91775 12.4405C6.8371 12.4739 6.75065 12.4911 6.66334 12.4911C6.57603 12.4911 6.48957 12.4739 6.40892 12.4405C6.32827 12.407 6.25501 12.358 6.19334 12.2962C5.94 12.0362 5.93334 11.6095 6.19334 11.3495Z" fill="#919191" fill-opacity="0.2"/>
  <path d="M6.19334 11.3495L8.78 8.76285L6.19334 6.17618C6.13162 6.11446 6.08266 6.04119 6.04925 5.96055C6.01585 5.8799 5.99866 5.79347 5.99866 5.70618C5.99866 5.6189 6.01585 5.53247 6.04925 5.45182C6.08266 5.37118 6.13162 5.29791 6.19334 5.23618C6.25506 5.17446 6.32833 5.1255 6.40898 5.0921C6.48962 5.0587 6.57605 5.0415 6.66334 5.0415C6.75062 5.0415 6.83706 5.0587 6.9177 5.0921C6.99834 5.1255 7.07162 5.17446 7.13334 5.23618L10.1933 8.29618C10.4533 8.55618 10.4533 8.97618 10.1933 9.23618L7.13334 12.2962C7.07166 12.358 6.9984 12.407 6.91775 12.4405C6.8371 12.4739 6.75065 12.4911 6.66334 12.4911C6.57603 12.4911 6.48957 12.4739 6.40892 12.4405C6.32827 12.407 6.25501 12.358 6.19334 12.2962C5.94 12.0362 5.93334 11.6095 6.19334 11.3495Z" fill="#919191" fill-opacity="0.2"/>
  <path d="M6.19334 11.3495L8.78 8.76285L6.19334 6.17618C6.13162 6.11446 6.08266 6.04119 6.04925 5.96055C6.01585 5.8799 5.99866 5.79347 5.99866 5.70618C5.99866 5.6189 6.01585 5.53247 6.04925 5.45182C6.08266 5.37118 6.13162 5.29791 6.19334 5.23618C6.25506 5.17446 6.32833 5.1255 6.40898 5.0921C6.48962 5.0587 6.57605 5.0415 6.66334 5.0415C6.75062 5.0415 6.83706 5.0587 6.9177 5.0921C6.99834 5.1255 7.07162 5.17446 7.13334 5.23618L10.1933 8.29618C10.4533 8.55618 10.4533 8.97618 10.1933 9.23618L7.13334 12.2962C7.07166 12.358 6.9984 12.407 6.91775 12.4405C6.8371 12.4739 6.75065 12.4911 6.66334 12.4911C6.57603 12.4911 6.48957 12.4739 6.40892 12.4405C6.32827 12.407 6.25501 12.358 6.19334 12.2962C5.94 12.0362 5.93334 11.6095 6.19334 11.3495Z" fill="#919191" fill-opacity="0.2"/>
  <path d="M6.19334 11.3495L8.78 8.76285L6.19334 6.17618C6.13162 6.11446 6.08266 6.04119 6.04925 5.96055C6.01585 5.8799 5.99866 5.79347 5.99866 5.70618C5.99866 5.6189 6.01585 5.53247 6.04925 5.45182C6.08266 5.37118 6.13162 5.29791 6.19334 5.23618C6.25506 5.17446 6.32833 5.1255 6.40898 5.0921C6.48962 5.0587 6.57605 5.0415 6.66334 5.0415C6.75062 5.0415 6.83706 5.0587 6.9177 5.0921C6.99834 5.1255 7.07162 5.17446 7.13334 5.23618L10.1933 8.29618C10.4533 8.55618 10.4533 8.97618 10.1933 9.23618L7.13334 12.2962C7.07166 12.358 6.9984 12.407 6.91775 12.4405C6.8371 12.4739 6.75065 12.4911 6.66334 12.4911C6.57603 12.4911 6.48957 12.4739 6.40892 12.4405C6.32827 12.407 6.25501 12.358 6.19334 12.2962C5.94 12.0362 5.93334 11.6095 6.19334 11.3495Z" fill="#919191" fill-opacity="0.2"/>
</svg>