<svg
            xmlns="http://www.w3.org/2000/svg"
            width="15"
            height="15"
            viewBox="0 0 20 20"
            fill="none"
          >
            <path
              d="M5.18751 4.00907C5.03034 3.85727 4.81984 3.77328 4.60134 3.77518C4.38285 3.77708 4.17383 3.86472 4.01933 4.01922C3.86482 4.17373 3.77718 4.38274 3.77528 4.60124C3.77338 4.81974 3.85738 5.03024 4.00918 5.18741L8.82168 9.99991L4.00834 14.8124C3.92875 14.8893 3.86527 14.9812 3.82159 15.0829C3.77792 15.1846 3.75493 15.2939 3.75397 15.4046C3.75301 15.5152 3.77409 15.625 3.81599 15.7274C3.85789 15.8298 3.91977 15.9228 3.99801 16.0011C4.07626 16.0793 4.1693 16.1412 4.27172 16.1831C4.37413 16.225 4.48386 16.2461 4.59451 16.2451C4.70516 16.2442 4.81451 16.2212 4.91618 16.1775C5.01785 16.1338 5.1098 16.0703 5.18668 15.9907L10 11.1782L14.8125 15.9907C14.9697 16.1425 15.1802 16.2265 15.3987 16.2246C15.6172 16.2227 15.8262 16.1351 15.9807 15.9806C16.1352 15.8261 16.2228 15.6171 16.2247 15.3986C16.2266 15.1801 16.1426 14.9696 15.9908 14.8124L11.1783 9.99991L15.9908 5.18741C16.1426 5.03024 16.2266 4.81974 16.2247 4.60124C16.2228 4.38274 16.1352 4.17373 15.9807 4.01922C15.8262 3.86472 15.6172 3.77708 15.3987 3.77518C15.1802 3.77328 14.9697 3.85727 14.8125 4.00907L10 8.82157L5.18751 4.00907Z"
              fill="white"
            />
            <path
              d="M5.18751 4.00907C5.03034 3.85727 4.81984 3.77328 4.60134 3.77518C4.38285 3.77708 4.17383 3.86472 4.01933 4.01922C3.86482 4.17373 3.77718 4.38274 3.77528 4.60124C3.77338 4.81974 3.85738 5.03024 4.00918 5.18741L8.82168 9.99991L4.00834 14.8124C3.92875 14.8893 3.86527 14.9812 3.82159 15.0829C3.77792 15.1846 3.75493 15.2939 3.75397 15.4046C3.75301 15.5152 3.77409 15.625 3.81599 15.7274C3.85789 15.8298 3.91977 15.9228 3.99801 16.0011C4.07626 16.0793 4.1693 16.1412 4.27172 16.1831C4.37413 16.225 4.48386 16.2461 4.59451 16.2451C4.70516 16.2442 4.81451 16.2212 4.91618 16.1775C5.01785 16.1338 5.1098 16.0703 5.18668 15.9907L10 11.1782L14.8125 15.9907C14.9697 16.1425 15.1802 16.2265 15.3987 16.2246C15.6172 16.2227 15.8262 16.1351 15.9807 15.9806C16.1352 15.8261 16.2228 15.6171 16.2247 15.3986C16.2266 15.1801 16.1426 14.9696 15.9908 14.8124L11.1783 9.99991L15.9908 5.18741C16.1426 5.03024 16.2266 4.81974 16.2247 4.60124C16.2228 4.38274 16.1352 4.17373 15.9807 4.01922C15.8262 3.86472 15.6172 3.77708 15.3987 3.77518C15.1802 3.77328 14.9697 3.85727 14.8125 4.00907L10 8.82157L5.18751 4.00907Z"
              fill="white"
              fill-opacity="0.2"
            />
            <path
              d="M5.18751 4.00907C5.03034 3.85727 4.81984 3.77328 4.60134 3.77518C4.38285 3.77708 4.17383 3.86472 4.01933 4.01922C3.86482 4.17373 3.77718 4.38274 3.77528 4.60124C3.77338 4.81974 3.85738 5.03024 4.00918 5.18741L8.82168 9.99991L4.00834 14.8124C3.92875 14.8893 3.86527 14.9812 3.82159 15.0829C3.77792 15.1846 3.75493 15.2939 3.75397 15.4046C3.75301 15.5152 3.77409 15.625 3.81599 15.7274C3.85789 15.8298 3.91977 15.9228 3.99801 16.0011C4.07626 16.0793 4.1693 16.1412 4.27172 16.1831C4.37413 16.225 4.48386 16.2461 4.59451 16.2451C4.70516 16.2442 4.81451 16.2212 4.91618 16.1775C5.01785 16.1338 5.1098 16.0703 5.18668 15.9907L10 11.1782L14.8125 15.9907C14.9697 16.1425 15.1802 16.2265 15.3987 16.2246C15.6172 16.2227 15.8262 16.1351 15.9807 15.9806C16.1352 15.8261 16.2228 15.6171 16.2247 15.3986C16.2266 15.1801 16.1426 14.9696 15.9908 14.8124L11.1783 9.99991L15.9908 5.18741C16.1426 5.03024 16.2266 4.81974 16.2247 4.60124C16.2228 4.38274 16.1352 4.17373 15.9807 4.01922C15.8262 3.86472 15.6172 3.77708 15.3987 3.77518C15.1802 3.77328 14.9697 3.85727 14.8125 4.00907L10 8.82157L5.18751 4.00907Z"
              fill="white"
              fill-opacity="0.2"
            />
            <path
              d="M5.18751 4.00907C5.03034 3.85727 4.81984 3.77328 4.60134 3.77518C4.38285 3.77708 4.17383 3.86472 4.01933 4.01922C3.86482 4.17373 3.77718 4.38274 3.77528 4.60124C3.77338 4.81974 3.85738 5.03024 4.00918 5.18741L8.82168 9.99991L4.00834 14.8124C3.92875 14.8893 3.86527 14.9812 3.82159 15.0829C3.77792 15.1846 3.75493 15.2939 3.75397 15.4046C3.75301 15.5152 3.77409 15.625 3.81599 15.7274C3.85789 15.8298 3.91977 15.9228 3.99801 16.0011C4.07626 16.0793 4.1693 16.1412 4.27172 16.1831C4.37413 16.225 4.48386 16.2461 4.59451 16.2451C4.70516 16.2442 4.81451 16.2212 4.91618 16.1775C5.01785 16.1338 5.1098 16.0703 5.18668 15.9907L10 11.1782L14.8125 15.9907C14.9697 16.1425 15.1802 16.2265 15.3987 16.2246C15.6172 16.2227 15.8262 16.1351 15.9807 15.9806C16.1352 15.8261 16.2228 15.6171 16.2247 15.3986C16.2266 15.1801 16.1426 14.9696 15.9908 14.8124L11.1783 9.99991L15.9908 5.18741C16.1426 5.03024 16.2266 4.81974 16.2247 4.60124C16.2228 4.38274 16.1352 4.17373 15.9807 4.01922C15.8262 3.86472 15.6172 3.77708 15.3987 3.77518C15.1802 3.77328 14.9697 3.85727 14.8125 4.00907L10 8.82157L5.18751 4.00907Z"
              fill="white"
              fill-opacity="0.2"
            />
            <path
              d="M5.18751 4.00907C5.03034 3.85727 4.81984 3.77328 4.60134 3.77518C4.38285 3.77708 4.17383 3.86472 4.01933 4.01922C3.86482 4.17373 3.77718 4.38274 3.77528 4.60124C3.77338 4.81974 3.85738 5.03024 4.00918 5.18741L8.82168 9.99991L4.00834 14.8124C3.92875 14.8893 3.86527 14.9812 3.82159 15.0829C3.77792 15.1846 3.75493 15.2939 3.75397 15.4046C3.75301 15.5152 3.77409 15.625 3.81599 15.7274C3.85789 15.8298 3.91977 15.9228 3.99801 16.0011C4.07626 16.0793 4.1693 16.1412 4.27172 16.1831C4.37413 16.225 4.48386 16.2461 4.59451 16.2451C4.70516 16.2442 4.81451 16.2212 4.91618 16.1775C5.01785 16.1338 5.1098 16.0703 5.18668 15.9907L10 11.1782L14.8125 15.9907C14.9697 16.1425 15.1802 16.2265 15.3987 16.2246C15.6172 16.2227 15.8262 16.1351 15.9807 15.9806C16.1352 15.8261 16.2228 15.6171 16.2247 15.3986C16.2266 15.1801 16.1426 14.9696 15.9908 14.8124L11.1783 9.99991L15.9908 5.18741C16.1426 5.03024 16.2266 4.81974 16.2247 4.60124C16.2228 4.38274 16.1352 4.17373 15.9807 4.01922C15.8262 3.86472 15.6172 3.77708 15.3987 3.77518C15.1802 3.77328 14.9697 3.85727 14.8125 4.00907L10 8.82157L5.18751 4.00907Z"
              fill="white"
              fill-opacity="0.2"
            />
          </svg>