<svg
              xmlns="http://www.w3.org/2000/svg"
              width="20"
              height="20"
              viewBox="0 0 20 20"
              fill="none"
            >
              <path
                d="M9.99992 6.66659C10.9166 6.66659 11.6666 5.91659 11.6666 4.99992C11.6666 4.08325 10.9166 3.33325 9.99992 3.33325C9.08325 3.33325 8.33325 4.08325 8.33325 4.99992C8.33325 5.91659 9.08325 6.66659 9.99992 6.66659ZM9.99992 8.33325C9.08325 8.33325 8.33325 9.08325 8.33325 9.99992C8.33325 10.9166 9.08325 11.6666 9.99992 11.6666C10.9166 11.6666 11.6666 10.9166 11.6666 9.99992C11.6666 9.08325 10.9166 8.33325 9.99992 8.33325ZM9.99992 13.3333C9.08325 13.3333 8.33325 14.0833 8.33325 14.9999C8.33325 15.9166 9.08325 16.6666 9.99992 16.6666C10.9166 16.6666 11.6666 15.9166 11.6666 14.9999C11.6666 14.0833 10.9166 13.3333 9.99992 13.3333Z"
                fill="black"
              />
              <path
                d="M9.99992 6.66659C10.9166 6.66659 11.6666 5.91659 11.6666 4.99992C11.6666 4.08325 10.9166 3.33325 9.99992 3.33325C9.08325 3.33325 8.33325 4.08325 8.33325 4.99992C8.33325 5.91659 9.08325 6.66659 9.99992 6.66659ZM9.99992 8.33325C9.08325 8.33325 8.33325 9.08325 8.33325 9.99992C8.33325 10.9166 9.08325 11.6666 9.99992 11.6666C10.9166 11.6666 11.6666 10.9166 11.6666 9.99992C11.6666 9.08325 10.9166 8.33325 9.99992 8.33325ZM9.99992 13.3333C9.08325 13.3333 8.33325 14.0833 8.33325 14.9999C8.33325 15.9166 9.08325 16.6666 9.99992 16.6666C10.9166 16.6666 11.6666 15.9166 11.6666 14.9999C11.6666 14.0833 10.9166 13.3333 9.99992 13.3333Z"
                fill="black"
                fill-opacity="0.2"
              />
              <path
                d="M9.99992 6.66659C10.9166 6.66659 11.6666 5.91659 11.6666 4.99992C11.6666 4.08325 10.9166 3.33325 9.99992 3.33325C9.08325 3.33325 8.33325 4.08325 8.33325 4.99992C8.33325 5.91659 9.08325 6.66659 9.99992 6.66659ZM9.99992 8.33325C9.08325 8.33325 8.33325 9.08325 8.33325 9.99992C8.33325 10.9166 9.08325 11.6666 9.99992 11.6666C10.9166 11.6666 11.6666 10.9166 11.6666 9.99992C11.6666 9.08325 10.9166 8.33325 9.99992 8.33325ZM9.99992 13.3333C9.08325 13.3333 8.33325 14.0833 8.33325 14.9999C8.33325 15.9166 9.08325 16.6666 9.99992 16.6666C10.9166 16.6666 11.6666 15.9166 11.6666 14.9999C11.6666 14.0833 10.9166 13.3333 9.99992 13.3333Z"
                fill="black"
                fill-opacity="0.2"
              />
              <path
                d="M9.99992 6.66659C10.9166 6.66659 11.6666 5.91659 11.6666 4.99992C11.6666 4.08325 10.9166 3.33325 9.99992 3.33325C9.08325 3.33325 8.33325 4.08325 8.33325 4.99992C8.33325 5.91659 9.08325 6.66659 9.99992 6.66659ZM9.99992 8.33325C9.08325 8.33325 8.33325 9.08325 8.33325 9.99992C8.33325 10.9166 9.08325 11.6666 9.99992 11.6666C10.9166 11.6666 11.6666 10.9166 11.6666 9.99992C11.6666 9.08325 10.9166 8.33325 9.99992 8.33325ZM9.99992 13.3333C9.08325 13.3333 8.33325 14.0833 8.33325 14.9999C8.33325 15.9166 9.08325 16.6666 9.99992 16.6666C10.9166 16.6666 11.6666 15.9166 11.6666 14.9999C11.6666 14.0833 10.9166 13.3333 9.99992 13.3333Z"
                fill="black"
                fill-opacity="0.2"
              />
              <path
                d="M9.99992 6.66659C10.9166 6.66659 11.6666 5.91659 11.6666 4.99992C11.6666 4.08325 10.9166 3.33325 9.99992 3.33325C9.08325 3.33325 8.33325 4.08325 8.33325 4.99992C8.33325 5.91659 9.08325 6.66659 9.99992 6.66659ZM9.99992 8.33325C9.08325 8.33325 8.33325 9.08325 8.33325 9.99992C8.33325 10.9166 9.08325 11.6666 9.99992 11.6666C10.9166 11.6666 11.6666 10.9166 11.6666 9.99992C11.6666 9.08325 10.9166 8.33325 9.99992 8.33325ZM9.99992 13.3333C9.08325 13.3333 8.33325 14.0833 8.33325 14.9999C8.33325 15.9166 9.08325 16.6666 9.99992 16.6666C10.9166 16.6666 11.6666 15.9166 11.6666 14.9999C11.6666 14.0833 10.9166 13.3333 9.99992 13.3333Z"
                fill="black"
                fill-opacity="0.2"
              />
            </svg>