<svg width="20" height="21" viewBox="0 0 20 21" fill="none" xmlns="http://www.w3.org/2000/svg">
<path d="M12.9422 16.3079C13.0003 16.366 13.0463 16.4349 13.0777 16.5108C13.1092 16.5867 13.1254 16.668 13.1254 16.7501C13.1254 16.8322 13.1092 16.9135 13.0777 16.9894C13.0463 17.0653 13.0003 17.1342 12.9422 17.1923C12.8841 17.2504 12.8152 17.2964 12.7393 17.3278C12.6634 17.3593 12.5821 17.3755 12.5 17.3755C12.4179 17.3755 12.3366 17.3593 12.2607 17.3278C12.1848 17.2964 12.1159 17.2504 12.0578 17.1923L5.80782 10.9423C5.74971 10.8842 5.70361 10.8153 5.67215 10.7394C5.6407 10.6636 5.62451 10.5822 5.62451 10.5001C5.62451 10.418 5.6407 10.3366 5.67215 10.2608C5.70361 10.1849 5.74971 10.116 5.80782 10.0579L12.0578 3.80792C12.1751 3.69064 12.3342 3.62476 12.5 3.62476C12.6659 3.62476 12.8249 3.69064 12.9422 3.80792C13.0595 3.92519 13.1254 4.08425 13.1254 4.2501C13.1254 4.41596 13.0595 4.57502 12.9422 4.69229L7.1336 10.5001L12.9422 16.3079Z" fill="black"/>
<path d="M12.9422 16.3079C13.0003 16.366 13.0463 16.4349 13.0777 16.5108C13.1092 16.5867 13.1254 16.668 13.1254 16.7501C13.1254 16.8322 13.1092 16.9135 13.0777 16.9894C13.0463 17.0653 13.0003 17.1342 12.9422 17.1923C12.8841 17.2504 12.8152 17.2964 12.7393 17.3278C12.6634 17.3593 12.5821 17.3755 12.5 17.3755C12.4179 17.3755 12.3366 17.3593 12.2607 17.3278C12.1848 17.2964 12.1159 17.2504 12.0578 17.1923L5.80782 10.9423C5.74971 10.8842 5.70361 10.8153 5.67215 10.7394C5.6407 10.6636 5.62451 10.5822 5.62451 10.5001C5.62451 10.418 5.6407 10.3366 5.67215 10.2608C5.70361 10.1849 5.74971 10.116 5.80782 10.0579L12.0578 3.80792C12.1751 3.69064 12.3342 3.62476 12.5 3.62476C12.6659 3.62476 12.8249 3.69064 12.9422 3.80792C13.0595 3.92519 13.1254 4.08425 13.1254 4.2501C13.1254 4.41596 13.0595 4.57502 12.9422 4.69229L7.1336 10.5001L12.9422 16.3079Z" fill="black" fill-opacity="0.2"/>
<path d="M12.9422 16.3079C13.0003 16.366 13.0463 16.4349 13.0777 16.5108C13.1092 16.5867 13.1254 16.668 13.1254 16.7501C13.1254 16.8322 13.1092 16.9135 13.0777 16.9894C13.0463 17.0653 13.0003 17.1342 12.9422 17.1923C12.8841 17.2504 12.8152 17.2964 12.7393 17.3278C12.6634 17.3593 12.5821 17.3755 12.5 17.3755C12.4179 17.3755 12.3366 17.3593 12.2607 17.3278C12.1848 17.2964 12.1159 17.2504 12.0578 17.1923L5.80782 10.9423C5.74971 10.8842 5.70361 10.8153 5.67215 10.7394C5.6407 10.6636 5.62451 10.5822 5.62451 10.5001C5.62451 10.418 5.6407 10.3366 5.67215 10.2608C5.70361 10.1849 5.74971 10.116 5.80782 10.0579L12.0578 3.80792C12.1751 3.69064 12.3342 3.62476 12.5 3.62476C12.6659 3.62476 12.8249 3.69064 12.9422 3.80792C13.0595 3.92519 13.1254 4.08425 13.1254 4.2501C13.1254 4.41596 13.0595 4.57502 12.9422 4.69229L7.1336 10.5001L12.9422 16.3079Z" fill="black" fill-opacity="0.2"/>
<path d="M12.9422 16.3079C13.0003 16.366 13.0463 16.4349 13.0777 16.5108C13.1092 16.5867 13.1254 16.668 13.1254 16.7501C13.1254 16.8322 13.1092 16.9135 13.0777 16.9894C13.0463 17.0653 13.0003 17.1342 12.9422 17.1923C12.8841 17.2504 12.8152 17.2964 12.7393 17.3278C12.6634 17.3593 12.5821 17.3755 12.5 17.3755C12.4179 17.3755 12.3366 17.3593 12.2607 17.3278C12.1848 17.2964 12.1159 17.2504 12.0578 17.1923L5.80782 10.9423C5.74971 10.8842 5.70361 10.8153 5.67215 10.7394C5.6407 10.6636 5.62451 10.5822 5.62451 10.5001C5.62451 10.418 5.6407 10.3366 5.67215 10.2608C5.70361 10.1849 5.74971 10.116 5.80782 10.0579L12.0578 3.80792C12.1751 3.69064 12.3342 3.62476 12.5 3.62476C12.6659 3.62476 12.8249 3.69064 12.9422 3.80792C13.0595 3.92519 13.1254 4.08425 13.1254 4.2501C13.1254 4.41596 13.0595 4.57502 12.9422 4.69229L7.1336 10.5001L12.9422 16.3079Z" fill="black" fill-opacity="0.2"/>
<path d="M12.9422 16.3079C13.0003 16.366 13.0463 16.4349 13.0777 16.5108C13.1092 16.5867 13.1254 16.668 13.1254 16.7501C13.1254 16.8322 13.1092 16.9135 13.0777 16.9894C13.0463 17.0653 13.0003 17.1342 12.9422 17.1923C12.8841 17.2504 12.8152 17.2964 12.7393 17.3278C12.6634 17.3593 12.5821 17.3755 12.5 17.3755C12.4179 17.3755 12.3366 17.3593 12.2607 17.3278C12.1848 17.2964 12.1159 17.2504 12.0578 17.1923L5.80782 10.9423C5.74971 10.8842 5.70361 10.8153 5.67215 10.7394C5.6407 10.6636 5.62451 10.5822 5.62451 10.5001C5.62451 10.418 5.6407 10.3366 5.67215 10.2608C5.70361 10.1849 5.74971 10.116 5.80782 10.0579L12.0578 3.80792C12.1751 3.69064 12.3342 3.62476 12.5 3.62476C12.6659 3.62476 12.8249 3.69064 12.9422 3.80792C13.0595 3.92519 13.1254 4.08425 13.1254 4.2501C13.1254 4.41596 13.0595 4.57502 12.9422 4.69229L7.1336 10.5001L12.9422 16.3079Z" fill="black" fill-opacity="0.2"/>
</svg>
