<svg width="20" height="20" viewBox="0 0 20 20" fill="none" xmlns="http://www.w3.org/2000/svg">
<path d="M17.9422 14.6195C18.3866 13.7386 18.6105 12.7629 18.5946 11.7763C18.5787 10.7898 18.3235 9.82183 17.8509 8.9557C17.3783 8.08956 16.7024 7.35113 15.8814 6.80389C15.0604 6.25665 14.1188 5.91696 13.1375 5.81401C12.8259 5.05561 12.3646 4.36787 11.781 3.79198C11.1974 3.21608 10.5036 2.76388 9.74114 2.46244C8.97867 2.161 8.16322 2.01653 7.3436 2.03767C6.52398 2.05881 5.71706 2.24514 4.97114 2.58548C4.22523 2.92583 3.55567 3.4132 3.00255 4.01841C2.44943 4.62363 2.02414 5.33424 1.75212 6.10769C1.48011 6.88115 1.36698 7.70154 1.4195 8.51974C1.47202 9.33795 1.68911 10.1371 2.05778 10.8695L1.44294 13.0234C1.39713 13.1841 1.3951 13.3541 1.43706 13.5158C1.47903 13.6776 1.56345 13.8252 1.68161 13.9433C1.79976 14.0615 1.94734 14.1459 2.10908 14.1879C2.27082 14.2298 2.44084 14.2278 2.60153 14.182L4.75544 13.5671C5.41405 13.8981 6.12709 14.1072 6.86012 14.1843C7.17898 14.962 7.65516 15.6653 8.25876 16.2502C8.86237 16.835 9.58037 17.2888 10.3677 17.583C11.155 17.8772 11.9946 18.0054 12.8339 17.9597C13.6731 17.9139 14.4938 17.6952 15.2445 17.3171L17.3984 17.932C17.5591 17.9778 17.7291 17.9798 17.8909 17.9379C18.0526 17.8959 18.2002 17.8115 18.3183 17.6933C18.4365 17.5752 18.5209 17.4276 18.5629 17.2658C18.6048 17.1041 18.6028 16.9341 18.557 16.7734L17.9422 14.6195ZM4.807 12.596C4.76339 12.5958 4.71998 12.6019 4.67809 12.614L2.34372 13.2812L3.01012 10.9476C3.04416 10.8291 3.03012 10.7019 2.97106 10.5937C2.37838 9.5046 2.198 8.2384 2.46297 7.02712C2.72795 5.81584 3.42053 4.7406 4.41381 3.99844C5.40708 3.25628 6.63454 2.89689 7.87124 2.98614C9.10795 3.07539 10.2711 3.60729 11.1475 4.48438C12.0239 5.36147 12.555 6.525 12.6433 7.76178C12.7316 8.99855 12.3713 10.2257 11.6283 11.2184C10.8854 12.2112 9.80967 12.9029 8.59819 13.167C7.38671 13.431 6.12065 13.2497 5.032 12.6562C4.96313 12.6178 4.88582 12.5972 4.807 12.596ZM16.989 14.6968L17.6562 17.0312L15.3226 16.3648C15.2041 16.3308 15.077 16.3448 14.9687 16.4039C14.3625 16.7343 13.6961 16.9397 13.009 17.0077C12.322 17.0758 11.6282 17.0052 10.969 16.8001C10.3097 16.595 9.69835 16.2595 9.17116 15.8137C8.64397 15.3679 8.2117 14.8207 7.89997 14.2046C8.77648 14.1476 9.63026 13.9016 10.4027 13.4834C11.1751 13.0652 11.8479 12.4849 12.3749 11.7822C12.9019 11.0794 13.2705 10.271 13.4556 9.41233C13.6406 8.55368 13.6376 7.66515 13.4468 6.80776C14.247 6.95675 15.0005 7.29304 15.6457 7.78912C16.2909 8.28519 16.8096 8.92697 17.1592 9.66194C17.5088 10.3969 17.6795 11.2042 17.6572 12.0178C17.635 12.8314 17.4205 13.6281 17.0312 14.3429C16.9711 14.4507 16.9559 14.5779 16.989 14.6968Z" fill="black"/>
</svg>
